<?xml version="1.0" encoding="utf-8"?>
<!-- Generator: Adobe Illustrator 15.0.2, SVG Export Plug-In . SVG Version: 6.00 Build 0)  -->
<!DOCTYPE svg PUBLIC "-//W3C//DTD SVG 1.1//EN" "http://www.w3.org/Graphics/SVG/1.1/DTD/svg11.dtd">
<svg version="1.1" id="Layer_1" xmlns="http://www.w3.org/2000/svg" xmlns:xlink="http://www.w3.org/1999/xlink" x="0px" y="0px"
	 width="100px" height="100px" viewBox="0 0 100 100" enable-background="new 0 0 100 100" xml:space="preserve">
<g>
	<g>
		<path fill="none" stroke="#E01500" stroke-width="2" stroke-linecap="round" stroke-linejoin="round" stroke-miterlimit="10" d="
			M0,90c0,0,117,4,120,0s-5-20-5-40s10-35,5-40S0,10,0,10"/>
		<path fill="none" stroke="#E01500" stroke-width="2" stroke-linecap="round" stroke-linejoin="round" stroke-miterlimit="10" d="
			M115,85.75c-4.824,1.492-9.832,0.045-15,0.75"/>
		<path fill="none" stroke="#E01500" stroke-width="2" stroke-linecap="round" stroke-linejoin="round" stroke-miterlimit="10" d="
			M113.5,79c-2.608,2.474-8.545,2.487-12,1.75"/>
		<path fill="none" stroke="#E01500" stroke-width="2" stroke-linecap="round" stroke-linejoin="round" stroke-miterlimit="10" d="
			M111.75,73c-2.455,0.912-5.497-0.213-8,0.75"/>
		<path fill="none" stroke="#E01500" stroke-width="2" stroke-linecap="round" stroke-linejoin="round" stroke-miterlimit="10" d="
			M110.25,66.75c-1.043,0.637-2.235,0.828-3.5,0.75"/>
		<path fill="none" stroke="#E01500" stroke-width="2" stroke-linecap="round" stroke-linejoin="round" stroke-miterlimit="10" d="
			M117.25,13.25c-2.525,0.236-5.213-1-8-1c-2.405,0-6.842-0.68-8.75,0.75"/>
		<path fill="none" stroke="#E01500" stroke-width="2" stroke-linecap="round" stroke-linejoin="round" stroke-miterlimit="10" d="
			M116.25,17.25c-2.563-0.08-5.085-0.492-7.75-0.5"/>
		<path fill="none" stroke="#E01500" stroke-width="2" stroke-linecap="round" stroke-linejoin="round" stroke-miterlimit="10" d="
			M114,23c-0.771-0.625-1.722-0.808-2.75-0.75"/>
	</g>
	<g>
		<path fill="none" stroke="#E01500" stroke-width="2" stroke-linecap="round" stroke-linejoin="round" stroke-miterlimit="10" d="
			M1,390c0,0-117,4-120,0s5-20,5-40s-10-35-5-40s120,0,120,0"/>
		<path fill="none" stroke="#E01500" stroke-width="2" stroke-linecap="round" stroke-linejoin="round" stroke-miterlimit="10" d="
			M-114,385.75c4.824,1.492,9.832,0.045,15,0.75"/>
		<path fill="none" stroke="#E01500" stroke-width="2" stroke-linecap="round" stroke-linejoin="round" stroke-miterlimit="10" d="
			M-112.5,379c2.608,2.474,8.545,2.487,12,1.75"/>
		<path fill="none" stroke="#E01500" stroke-width="2" stroke-linecap="round" stroke-linejoin="round" stroke-miterlimit="10" d="
			M-110.75,373c2.455,0.912,5.497-0.213,8,0.75"/>
		<path fill="none" stroke="#E01500" stroke-width="2" stroke-linecap="round" stroke-linejoin="round" stroke-miterlimit="10" d="
			M-109.25,366.75c1.043,0.637,2.235,0.828,3.5,0.75"/>
		<path fill="none" stroke="#E01500" stroke-width="2" stroke-linecap="round" stroke-linejoin="round" stroke-miterlimit="10" d="
			M-116.25,313.25c2.525,0.236,5.213-1,8-1c2.405,0,6.842-0.68,8.75,0.75"/>
		<path fill="none" stroke="#E01500" stroke-width="2" stroke-linecap="round" stroke-linejoin="round" stroke-miterlimit="10" d="
			M-115.25,317.25c2.563-0.08,5.085-0.492,7.75-0.5"/>
		<path fill="none" stroke="#E01500" stroke-width="2" stroke-linecap="round" stroke-linejoin="round" stroke-miterlimit="10" d="
			M-113,323c0.771-0.625,1.722-0.808,2.75-0.75"/>
	</g>
	<path fill="none" stroke="#E01500" stroke-width="2" stroke-linecap="round" stroke-linejoin="round" stroke-miterlimit="10" d="
		M16,310.002c-3.924-2.822-6.51-55.595-3.377-61.077"/>
	<path fill="none" stroke="#E01500" stroke-width="2" stroke-linecap="round" stroke-linejoin="round" stroke-miterlimit="10" d="
		M-121,318c-13.704-3.081-24.919-9.604-38.219-14.777c-11.877-4.62-32.938-5.303-40.579-5.303
		c-1.833-27.499-2.021-53.611-2.222-81.062c56.878,11.005,123.826,34.289,214.643,32.067c-6.75,14.977-48.605,28.959-62.123,35.825
		C-69.35,294.834-92.718,303.5-119,310"/>
	<path fill="none" stroke="#E01500" stroke-width="2" stroke-linecap="round" stroke-linejoin="round" stroke-miterlimit="10" d="
		M-192,293"/>
	<path fill="none" stroke="#E01500" stroke-width="2" stroke-linecap="round" stroke-linejoin="round" stroke-miterlimit="10" d="
		M120,90c-7.625-0.226-92.017,74.575-101.801,82.548c-32.672,26.625-68.167,49.345-105.277,69.005"/>
	<path fill="none" stroke="#E01500" stroke-width="2" stroke-linecap="round" stroke-linejoin="round" stroke-miterlimit="10" d="
		M-202.02,216.857c24.52,3.143,58.054-15.568,76.353-26.012c31.723-18.106,61.201-35.222,92.167-54.596
		c15.495-9.695,34.049-27.465,50.084-45.583"/>
	<path fill="none" stroke="#E01500" stroke-width="2" stroke-linecap="round" stroke-linejoin="round" stroke-miterlimit="10" d="
		M105.5,92.5c-4.165,3.159-8.626,5.432-12,9.5"/>
	<path fill="none" stroke="#E01500" stroke-width="2" stroke-linecap="round" stroke-linejoin="round" stroke-miterlimit="10" d="
		M91,97.667c-0.742-0.845,2.086-2.18,3.334-3"/>
	<path fill="none" stroke="#E01500" stroke-width="2" stroke-linecap="round" stroke-linejoin="round" stroke-miterlimit="10" d="
		M-180.667,217.667c-0.44,0.941-0.44,2.393,0,3.334"/>
	<path fill="none" stroke="#E01500" stroke-width="2" stroke-linecap="round" stroke-linejoin="round" stroke-miterlimit="10" d="
		M-176,216.001c0.656,1.94-0.02,4.135,0.667,6"/>
	<path fill="none" stroke="#E01500" stroke-width="2" stroke-linecap="round" stroke-linejoin="round" stroke-miterlimit="10" d="
		M-169,214.667c0.096,2.172-1.392,6-0.25,8.583"/>
	<path fill="none" stroke="#E01500" stroke-width="2" stroke-linecap="round" stroke-linejoin="round" stroke-miterlimit="10" d="
		M-163.667,213.334c-0.22,1.412-0.333,4.733-0.333,7"/>
	<path fill="none" stroke="#E01500" stroke-width="2" stroke-linecap="round" stroke-linejoin="round" stroke-miterlimit="10" d="
		M-158.333,211.667c-0.067,1.688-0.487,3.292-0.333,5"/>
	<path fill="none" stroke="#E01500" stroke-width="2" stroke-linecap="round" stroke-linejoin="round" stroke-miterlimit="10" d="
		M-196.333,293.334c1.631,0.002,5.031-0.58,7.333-0.333"/>
	<path fill="none" stroke="#E01500" stroke-width="2" stroke-linecap="round" stroke-linejoin="round" stroke-miterlimit="10" d="
		M-194.667,288.001c0.581-0.366,1.283-0.473,2-0.334"/>
	<path fill="none" stroke="#E01500" stroke-width="2" stroke-linecap="round" stroke-linejoin="round" stroke-miterlimit="10" d="
		M4.667,252.334c-0.26,1.868-0.43,3.547,0,5.333"/>
	<path fill="none" stroke="#E01500" stroke-width="2" stroke-linecap="round" stroke-linejoin="round" stroke-miterlimit="10" d="
		M0.334,253.334c-0.43-0.15-0.434-0.506-0.95-0.289c-0.023,2.566-0.56,5.069-0.717,7.622"/>
	<path fill="none" stroke="#E01500" stroke-width="2" stroke-linecap="round" stroke-linejoin="round" stroke-miterlimit="10" d="
		M-7,254.667c0.174,1.73-0.316,3.294-0.333,5"/>
	<path fill="none" stroke="#E01500" stroke-width="2" stroke-linecap="round" stroke-linejoin="round" stroke-miterlimit="10" d="
		M6.334,267.334c-3.25,1.919-8.042,3.736-10.334,6.667"/>
	<path fill="none" stroke="#E01500" stroke-width="2" stroke-linecap="round" stroke-linejoin="round" stroke-miterlimit="10" d="
		M6,274.334c-1-0.005-1.908,0.347-2.666,1"/>
	<path fill="none" stroke="#E01500" stroke-width="2" stroke-linecap="round" stroke-linejoin="round" stroke-miterlimit="10" d="
		M5.334,279.334c0.002,0.274-0.109,0.497-0.334,0.667"/>
	<path fill="none" stroke="#E01500" stroke-width="2" stroke-linecap="round" stroke-linejoin="round" stroke-miterlimit="10" d="
		M-130.667,307.334c2.649,1.603,6.478,2.675,9.667,3"/>
	<path fill="none" stroke="#E01500" stroke-width="2" stroke-linecap="round" stroke-linejoin="round" stroke-miterlimit="10" d="
		M-125.333,299.667c2.707,3.958,10.258,4.023,14.667,6"/>
	<path fill="none" stroke="#E01500" stroke-width="2" stroke-linecap="round" stroke-linejoin="round" stroke-miterlimit="10" d="
		M-116.333,297.334c2.343,0.521,4.396,3.033,7,3"/>
</g>
</svg>
