<?xml version="1.0" encoding="utf-8"?>
<!-- Generator: Adobe Illustrator 15.0.2, SVG Export Plug-In . SVG Version: 6.00 Build 0)  -->
<!DOCTYPE svg PUBLIC "-//W3C//DTD SVG 1.1//EN" "http://www.w3.org/Graphics/SVG/1.1/DTD/svg11.dtd">
<svg version="1.1" id="Layer_1" xmlns="http://www.w3.org/2000/svg" xmlns:xlink="http://www.w3.org/1999/xlink" x="0px" y="0px"
	 width="100px" height="100px" viewBox="0 0 100 100" enable-background="new 0 0 100 100" xml:space="preserve">
<g>
	<path fill="none" stroke="#E01500" stroke-width="2" stroke-linecap="round" stroke-linejoin="round" stroke-miterlimit="10" d="
		M74.773,110.293C100.891,92.729,120,90,120,90"/>
	<path fill="none" stroke="#E01500" stroke-width="2" stroke-linecap="round" stroke-linejoin="round" stroke-miterlimit="10" d="
		M-20,110c0,0,8.93-5.088,26.574-19.787"/>
	<g>
		<path fill="none" stroke="#E01500" stroke-width="2" stroke-linecap="round" stroke-linejoin="round" stroke-miterlimit="10" d="
			M0,90c0,0,117,4,120,0s-5-20-5-40c0-20,10-35,5-40S0,10,0,10"/>
		<path fill="none" stroke="#E01500" stroke-width="2" stroke-linecap="round" stroke-linejoin="round" stroke-miterlimit="10" d="
			M115,85.75c-4.824,1.492-9.832,0.045-15,0.75"/>
		<path fill="none" stroke="#E01500" stroke-width="2" stroke-linecap="round" stroke-linejoin="round" stroke-miterlimit="10" d="
			M113.5,79c-2.609,2.473-8.545,2.486-12,1.75"/>
		<path fill="none" stroke="#E01500" stroke-width="2" stroke-linecap="round" stroke-linejoin="round" stroke-miterlimit="10" d="
			M111.75,73c-2.455,0.912-5.498-0.213-8,0.75"/>
		<path fill="none" stroke="#E01500" stroke-width="2" stroke-linecap="round" stroke-linejoin="round" stroke-miterlimit="10" d="
			M110.25,66.75c-1.043,0.637-2.236,0.828-3.5,0.75"/>
		<path fill="none" stroke="#E01500" stroke-width="2" stroke-linecap="round" stroke-linejoin="round" stroke-miterlimit="10" d="
			M117.25,13.25c-2.525,0.237-5.213-1-8-1c-2.406,0-6.842-0.68-8.75,0.75"/>
		<path fill="none" stroke="#E01500" stroke-width="2" stroke-linecap="round" stroke-linejoin="round" stroke-miterlimit="10" d="
			M116.25,17.25c-2.564-0.08-5.086-0.492-7.75-0.5"/>
		<path fill="none" stroke="#E01500" stroke-width="2" stroke-linecap="round" stroke-linejoin="round" stroke-miterlimit="10" d="
			M114,23c-0.771-0.625-1.723-0.808-2.75-0.75"/>
	</g>
	<path fill="none" stroke="#E01500" stroke-width="2" stroke-linecap="round" stroke-linejoin="round" stroke-miterlimit="10" d="
		M-18.25,116.25c5.631-2.785,11.639,0.65,17.25,0"/>
	<g>
		<path fill="none" stroke="#E01500" stroke-width="2" stroke-linecap="round" stroke-linejoin="round" stroke-miterlimit="10" d="
			M-20,190"/>
		<path fill="none" stroke="#E01500" stroke-width="2" stroke-linecap="round" stroke-linejoin="round" stroke-miterlimit="10" d="
			M99.4,190.342c0,0-117,4-120,0s5-20,5-40s-10-35-5-40c0.946-0.947,127.512,0.326,120,0"/>
		<path fill="none" stroke="#E01500" stroke-width="2" stroke-linecap="round" stroke-linejoin="round" stroke-miterlimit="10" d="
			M-18,186.75c3.777,0.664,9.324,1.736,13.25,0.5"/>
		<path fill="none" stroke="#E01500" stroke-width="2" stroke-linecap="round" stroke-linejoin="round" stroke-miterlimit="10" d="
			M-16.5,182.75c-0.062-0.119-0.619-0.287-0.285-0.262c1.688,0.346,3.5,0.973,5.285,0.762"/>
		<path fill="none" stroke="#E01500" stroke-width="2" stroke-linecap="round" stroke-linejoin="round" stroke-miterlimit="10" d="
			M-15.5,177.5c0.667,0,1.333,0,2,0"/>
		<path fill="none" stroke="#E01500" stroke-width="2" stroke-linecap="round" stroke-linejoin="round" stroke-miterlimit="10" d="
			M-16.75,120c0.807,0.275,5.533-0.652,7.5-0.5"/>
		<path fill="none" stroke="#E01500" stroke-width="2" stroke-linecap="round" stroke-linejoin="round" stroke-miterlimit="10" d="
			M-15.75,125.25c1.328,0.053,2.422-0.553,3.75-0.5"/>
	</g>
	<path fill="none" stroke="#E01500" stroke-width="2" stroke-linecap="round" stroke-linejoin="round" stroke-miterlimit="10" d="
		M-12,107c0.734,1.139,1.374,2.881,2,2"/>
	<path fill="none" stroke="#E01500" stroke-width="2" stroke-linecap="round" stroke-linejoin="round" stroke-miterlimit="10" d="
		M-7.666,104c1.023,1.83,1.744,4.186,3,5.666"/>
	<path fill="none" stroke="#E01500" stroke-width="2" stroke-linecap="round" stroke-linejoin="round" stroke-miterlimit="10" d="
		M-3.333,101.334c1.426,1.932,1.186,6.436,3.333,7.332"/>
	<path fill="none" stroke="#E01500" stroke-width="2" stroke-linecap="round" stroke-linejoin="round" stroke-miterlimit="10" d="
		M0.334,99c1.336,2.906,2.012,9.504,4.333,11"/>
	<path fill="none" stroke="#E01500" stroke-width="2" stroke-linecap="round" stroke-linejoin="round" stroke-miterlimit="10" d="
		M5.334,97.666C4.306,98.361,7.619,107.475,9,109.334"/>
	<path fill="none" stroke="#E01500" stroke-width="2" stroke-linecap="round" stroke-linejoin="round" stroke-miterlimit="10" d="
		M8.334,93c-0.086,3.467,3.545,11.363,6.333,13.334"/>
	<path fill="none" stroke="#E01500" stroke-width="2" stroke-linecap="round" stroke-linejoin="round" stroke-miterlimit="10" d="
		M16.334,96c1.072,1.168,1.807,2.877,2.666,4.334"/>
</g>
</svg>
