<?xml version="1.0" encoding="utf-8"?>
<!-- Generator: Adobe Illustrator 15.0.2, SVG Export Plug-In . SVG Version: 6.00 Build 0)  -->
<!DOCTYPE svg PUBLIC "-//W3C//DTD SVG 1.1//EN" "http://www.w3.org/Graphics/SVG/1.1/DTD/svg11.dtd">
<svg version="1.1" id="Layer_1" xmlns="http://www.w3.org/2000/svg" xmlns:xlink="http://www.w3.org/1999/xlink" x="0px" y="0px"
	 width="100px" height="100px" viewBox="0 0 100 100" enable-background="new 0 0 100 100" xml:space="preserve">
<g>
	<path fill="none" stroke="#E01500" stroke-width="2" stroke-linecap="round" stroke-linejoin="round" stroke-miterlimit="10" d="
		M115,14.25c-4.824-1.492-9.832-0.045-15-0.75"/>
	<path fill="none" stroke="#E01500" stroke-width="2" stroke-linecap="round" stroke-linejoin="round" stroke-miterlimit="10" d="
		M113.5,21c-2.608-2.474-8.545-2.487-12-1.75"/>
	<path fill="none" stroke="#E01500" stroke-width="2" stroke-linecap="round" stroke-linejoin="round" stroke-miterlimit="10" d="
		M111.75,27c-2.455-0.912-5.497,0.213-8-0.75"/>
	<path fill="none" stroke="#E01500" stroke-width="2" stroke-linecap="round" stroke-linejoin="round" stroke-miterlimit="10" d="
		M110.25,33.25c-1.043-0.637-2.235-0.828-3.5-0.75"/>
	<path fill="none" stroke="#E01500" stroke-width="2" stroke-linecap="round" stroke-linejoin="round" stroke-miterlimit="10" d="
		M117.25,86.75c-2.525-0.236-5.213,1-8,1c-2.405,0-6.842,0.68-8.75-0.75"/>
	<path fill="none" stroke="#E01500" stroke-width="2" stroke-linecap="round" stroke-linejoin="round" stroke-miterlimit="10" d="
		M116.25,82.75c-2.563,0.08-5.085,0.492-7.75,0.5"/>
	<path fill="none" stroke="#E01500" stroke-width="2" stroke-linecap="round" stroke-linejoin="round" stroke-miterlimit="10" d="
		M114,77c-0.771,0.625-1.722,0.808-2.75,0.75"/>
	<path fill="none" stroke="#E01500" stroke-width="2" stroke-linecap="round" stroke-linejoin="round" stroke-miterlimit="10" d="
		M82,5c0.71-0.381-0.134,1.654-0.5,3"/>
	<path fill="none" stroke="#E01500" stroke-width="2" stroke-linecap="round" stroke-linejoin="round" stroke-miterlimit="10" d="
		M78,4c-0.368,1.146-0.247,2.521-0.5,3.75"/>
	<path fill="none" stroke="#E01500" stroke-width="2" stroke-linecap="round" stroke-linejoin="round" stroke-miterlimit="10" d="
		M74,2.25c0,1.551,0.253,3.291-0.25,4.75"/>
	<path fill="none" stroke="#E01500" stroke-width="2" stroke-linecap="round" stroke-linejoin="round" stroke-miterlimit="10" d="
		M81-8.75c-5.166-0.816-12.221-3.779-16.75,0.5"/>
	<path fill="none" stroke="#E01500" stroke-width="2" stroke-linecap="round" stroke-linejoin="round" stroke-miterlimit="10" d="
		M74.5-5.25C72.44-5.843,68.787-6.286,67-5"/>
	<path fill="none" stroke="#E01500" stroke-width="2" stroke-linecap="round" stroke-linejoin="round" stroke-miterlimit="10" d="
		M150.5-19.75c-0.111,0.753-0.283,1.523-0.5,2.25"/>
	<path fill="none" stroke="#E01500" stroke-width="2" stroke-linecap="round" stroke-linejoin="round" stroke-miterlimit="10" d="
		M146.5-20.25c-0.175,1.725-0.303,3.635-0.75,5.25"/>
	<path fill="none" stroke="#E01500" stroke-width="2" stroke-linecap="round" stroke-linejoin="round" stroke-miterlimit="10" d="
		M142.25-22c-0.54,1.757-0.426,4.614-1.5,6"/>
	<path fill="none" stroke="#E01500" stroke-width="2" stroke-linecap="round" stroke-linejoin="round" stroke-miterlimit="10" d="
		M134.25-32.5c-1.637-0.281-3.269-1.17-4.999-1.249c-1.636-0.075-3.142,0.451-4.751,0.499"/>
	<path fill="none" stroke="#E01500" stroke-width="2" stroke-linecap="round" stroke-linejoin="round" stroke-miterlimit="10" d="
		M136.75-29.5c-1.313-0.512-2.566,0.168-4,0"/>
	<path fill="none" stroke="#E01500" stroke-width="2" stroke-linecap="round" stroke-linejoin="round" stroke-miterlimit="10" d="
		M171.25,28c-2.524-2.755-8.57,1.073-11.5,1"/>
	<path fill="none" stroke="#E01500" stroke-width="2" stroke-linecap="round" stroke-linejoin="round" stroke-miterlimit="10" d="
		M166.5,22.5c-1.191-0.285-3.48,0.57-4.75,1"/>
	<path fill="none" stroke="#E01500" stroke-width="2" stroke-linecap="round" stroke-linejoin="round" stroke-miterlimit="10" d="
		M149.25,52.75c-1.267,1.276-5.927,2.511-7.75,1.75"/>
	<path fill="none" stroke="#E01500" stroke-width="2" stroke-linecap="round" stroke-linejoin="round" stroke-miterlimit="10" d="
		M148.5,47.75c-0.36,0.911-1.58,1.497-2.75,1.25"/>
	<path fill="none" stroke="#E01500" stroke-width="2" stroke-linecap="round" stroke-linejoin="round" stroke-miterlimit="10" d="
		M115.666-37.5c0,8.018,1.497,19.882-1.333,26.666"/>
	<path fill="none" stroke="#E01500" stroke-width="2" stroke-linecap="round" stroke-linejoin="round" stroke-miterlimit="10" d="
		M153.666,33.166c7.962,0.739,15.67-2.406,23.982-2.016c8.531,0.4,15.905,2.716,23.784,5.412
		c-3.359-6.576-6.999-13.217-11.23-19.396c-3.364-4.913-8.97-8.727-11.785-13.85c12.543-6.021,28.579-20.551,27.281-36.583
		c-11.382,8.815-31.941,5.608-45.365,4.433c-16.223-1.42-27.779-10.353-44.667-8.666c12.333,8,29.598,15.667,44.334,17"/>
	<path fill="none" stroke="#E01500" stroke-width="2" stroke-linecap="round" stroke-linejoin="round" stroke-miterlimit="10" d="
		M117.666,69.166c6.992,0.739,12.107-2.727,18.148-5.167c5.364-2.166,13.631-7.515,19.085-7.6
		c0.589-12.428-3.305-24.861-3.899-37.233c-0.324-6.756-0.211-13.013,2.002-19.333c2.145-6.122,7.426-13.692,6.998-20.333
		c-15.672,8.358-34.678,9.616-53,9.666c-12.064,0.033-23.822-3.828-35.904-3.728c-4.155,0.034-12.87-0.153-14.875,3.907
		c4.604,13.463,52.898,17.688,63.612,20.32"/>
	<path fill="none" stroke="#E01500" stroke-width="2" stroke-linecap="round" stroke-linejoin="round" stroke-miterlimit="10" d="
		M54.332,8.584c0,0,0.959-6.61,1.335-9.251c0.415-2.916,0.554-9.987,0.554-9.987"/>
	<path fill="none" stroke="#E01500" stroke-width="2" stroke-linecap="round" stroke-linejoin="round" stroke-miterlimit="10" d="
		M0,10c0,0,117-4,120,0s-5,20-5,40s10,35,5,40S0,90,0,90"/>
</g>
</svg>
