<?xml version="1.0" encoding="utf-8"?>
<!-- Generator: Adobe Illustrator 15.0.2, SVG Export Plug-In . SVG Version: 6.00 Build 0)  -->
<!DOCTYPE svg PUBLIC "-//W3C//DTD SVG 1.1//EN" "http://www.w3.org/Graphics/SVG/1.1/DTD/svg11.dtd">
<svg version="1.1" id="Layer_1" xmlns="http://www.w3.org/2000/svg" xmlns:xlink="http://www.w3.org/1999/xlink" x="0px" y="0px"
	 width="100px" height="100px" viewBox="0 0 100 100" enable-background="new 0 0 100 100" xml:space="preserve">
<g>
	<path fill="none" stroke="#E01500" stroke-width="2" stroke-linecap="round" stroke-linejoin="round" stroke-miterlimit="10" d="
		M86.041-11c2.499,6.462,0.5,15.913,0.5,23.125"/>
	<path fill="none" stroke="#E01500" stroke-width="2" stroke-linecap="round" stroke-linejoin="round" stroke-miterlimit="10" d="
		M131.961,63.75c7.635,1.289,13.014-3.79,22.104-2.773c8.238,0.922,15.551,4.162,22.049,9.67
		c0.277-9.135-5.406-20.283-10.824-27.672c-7.115-9.704-14.717-9.345-9.471-21.224c9.449-21.39,18.996-35.043,15.223-58.751v-7
		c-0.799,15.045-23.83,22.732-35.977,27.246c-15.248,5.665-33.924,0.15-49.023,5.754c4.839,7.423,47.445,20.854,56.35,20.1"/>
	<path fill="none" stroke="#E01500" stroke-width="2" stroke-linecap="round" stroke-linejoin="round" stroke-miterlimit="10" d="
		M0.042,10c18.335-1.651,43.991,0.391,62.527,0.233c21.125-0.18,56.464,9.758,79.821-1.134c2.15,5.467-5.939,16.312-7.25,22.021
		c-1.564,6.819-1.57,14.441-2.611,21.379c-1.875,12.513,1.48,22.584,1.512,33C126.956,98.479-2.663,89.726,0.042,90"/>
	<path fill="none" stroke="#E01500" stroke-width="2" stroke-linecap="round" stroke-linejoin="round" stroke-miterlimit="10" d="
		M127.541,9c-0.039-1.775-0.42,2.503-0.5,3.5c-0.739-0.114,0.287,0.463,0,0"/>
	<path fill="none" stroke="#E01500" stroke-width="2" stroke-linecap="round" stroke-linejoin="round" stroke-miterlimit="10" d="
		M122.04,7.625c0.013,1.479-0.123,3.646-1,4.75"/>
	<path fill="none" stroke="#E01500" stroke-width="2" stroke-linecap="round" stroke-linejoin="round" stroke-miterlimit="10" d="
		M116.666,6c-0.039,2.062-0.689,3.978-0.75,6"/>
	<path fill="none" stroke="#E01500" stroke-width="2" stroke-linecap="round" stroke-linejoin="round" stroke-miterlimit="10" d="
		M142.709,55.334c0.232-0.34,0.518-0.23,0.639-0.6c-3.438-0.752-6.225,2.962-9.639,2.933"/>
	<path fill="none" stroke="#E01500" stroke-width="2" stroke-linecap="round" stroke-linejoin="round" stroke-miterlimit="10" d="
		M140.041,50.667c-1.553-0.807-2.949,0.547-4.332,1.334"/>
	<path fill="none" stroke="#E01500" stroke-width="2" stroke-linecap="round" stroke-linejoin="round" stroke-miterlimit="10" d="
		M109.041-9.999c-3.964-2.44-10.402,0.41-14.333,1.666"/>
	<path fill="none" stroke="#E01500" stroke-width="2" stroke-linecap="round" stroke-linejoin="round" stroke-miterlimit="10" d="
		M105.374-5.999c-1.694,0.679-3.62,0.058-5.333,1"/>
	<path fill="none" stroke="#E01500" stroke-width="2" stroke-linecap="round" stroke-linejoin="round" stroke-miterlimit="10" d="
		M128.541,84c-2.292,2.101-8.226,2.877-12.5,3.5"/>
	<path fill="none" stroke="#E01500" stroke-width="2" stroke-linecap="round" stroke-linejoin="round" stroke-miterlimit="10" d="
		M126.791,78.25c0.259-0.068,0.379-0.458,0.484-0.06c-1.946,0.101-3.748,1.241-5.734,0.81"/>
	<path fill="none" stroke="#E01500" stroke-width="2" stroke-linecap="round" stroke-linejoin="round" stroke-miterlimit="10" d="
		M127.291,70.5c0.432,0.307-1.598,0.355-2.5,0.25"/>
	<path fill="none" stroke="#E01500" stroke-width="2" stroke-linecap="round" stroke-linejoin="round" stroke-miterlimit="10" d="
		M135.041,17c-1.568,0.793-3.611,0.045-5,1.25"/>
	<path fill="none" stroke="#E01500" stroke-width="2" stroke-linecap="round" stroke-linejoin="round" stroke-miterlimit="10" d="
		M132.791,22.5c-0.854,0.078-1.678,0.242-2.5,0.5"/>
</g>
</svg>
