<?xml version="1.0" encoding="utf-8"?>
<!-- Generator: Adobe Illustrator 15.0.2, SVG Export Plug-In . SVG Version: 6.00 Build 0)  -->
<!DOCTYPE svg PUBLIC "-//W3C//DTD SVG 1.1//EN" "http://www.w3.org/Graphics/SVG/1.1/DTD/svg11.dtd">
<svg version="1.1" id="Layer_1" xmlns="http://www.w3.org/2000/svg" xmlns:xlink="http://www.w3.org/1999/xlink" x="0px" y="0px"
	 width="100px" height="100px" viewBox="0 0 100 100" enable-background="new 0 0 100 100" xml:space="preserve">
<g>
	<path fill="none" stroke="#E01500" stroke-width="2" stroke-linecap="round" stroke-linejoin="round" stroke-miterlimit="10" d="
		M0,10c0,0,50.27-0.562,70.25,0.25c28.53,1.159,59.57,6.382,85,5c-14.23,11.213-40.379,27.273-55,40
		c6.163,13.827,23.715,25.845,35.161,35C92.641,93.037,43.45,91.502,0,90"/>
	<path fill="none" stroke="#E01500" stroke-width="2" stroke-linecap="round" stroke-linejoin="round" stroke-miterlimit="10" d="
		M101.75,17.5c-2.536-0.086-4.467-0.404-7-0.756c-2.289-0.317-5.257-0.789-7.5-0.744"/>
	<path fill="none" stroke="#E01500" stroke-width="2" stroke-linecap="round" stroke-linejoin="round" stroke-miterlimit="10" d="
		M101.25,22.75C100.178,21.374,93.395,22,91,22"/>
	<path fill="none" stroke="#E01500" stroke-width="2" stroke-linecap="round" stroke-linejoin="round" stroke-miterlimit="10" d="
		M99.75,27.5c-1.427,0.009-2.994-0.238-4.25,0.5"/>
	<path fill="none" stroke="#E01500" stroke-width="2" stroke-linecap="round" stroke-linejoin="round" stroke-miterlimit="10" d="
		M99.998,83.996c-1.897-0.326-3.407,0.806-5.251,1c-2.505,0.264-5.008,0.271-7.499,0"/>
	<path fill="none" stroke="#E01500" stroke-width="2" stroke-linecap="round" stroke-linejoin="round" stroke-miterlimit="10" d="
		M97.248,79.747c-2.151,0.54-5.009,0.618-7,1.5"/>
</g>
</svg>
