<?xml version="1.0" encoding="utf-8"?>
<!-- Generator: Adobe Illustrator 15.0.2, SVG Export Plug-In . SVG Version: 6.00 Build 0)  -->
<!DOCTYPE svg PUBLIC "-//W3C//DTD SVG 1.1//EN" "http://www.w3.org/Graphics/SVG/1.1/DTD/svg11.dtd">
<svg version="1.1" id="Layer_1" xmlns="http://www.w3.org/2000/svg" xmlns:xlink="http://www.w3.org/1999/xlink" x="0px" y="0px"
	 width="100px" height="100px" viewBox="0 0 100 100" enable-background="new 0 0 100 100" xml:space="preserve">
<g>
	<g>
		<path fill="none" stroke="#E01500" stroke-width="2" stroke-linecap="round" stroke-linejoin="round" stroke-miterlimit="10" d="
			M100,90c0,0-117.494,4.257-120.494,0.257s5-20.001,5-40.001s-10-35-5-40S100,10,100,10"/>
		<path fill="none" stroke="#E01500" stroke-width="2" stroke-linecap="round" stroke-linejoin="round" stroke-miterlimit="10" d="
			M-15.494,86.007c4.824,1.492,9.832,0.045,15,0.75"/>
		<path fill="none" stroke="#E01500" stroke-width="2" stroke-linecap="round" stroke-linejoin="round" stroke-miterlimit="10" d="
			M-13.994,79.257c2.608,2.473,8.545,2.486,12,1.75"/>
		<path fill="none" stroke="#E01500" stroke-width="2" stroke-linecap="round" stroke-linejoin="round" stroke-miterlimit="10" d="
			M-12.244,73.256c2.455,0.912,5.497-0.214,8,0.75"/>
		<path fill="none" stroke="#E01500" stroke-width="2" stroke-linecap="round" stroke-linejoin="round" stroke-miterlimit="10" d="
			M-10.744,67.006c1.043,0.636,2.235,0.829,3.5,0.75"/>
		<path fill="none" stroke="#E01500" stroke-width="2" stroke-linecap="round" stroke-linejoin="round" stroke-miterlimit="10" d="
			M-17.744,13.506c2.525,0.237,5.213-1,8-1c2.405,0,6.842-0.68,8.75,0.75"/>
		<path fill="none" stroke="#E01500" stroke-width="2" stroke-linecap="round" stroke-linejoin="round" stroke-miterlimit="10" d="
			M-16.744,17.506c2.563-0.079,5.085-0.491,7.75-0.5"/>
		<path fill="none" stroke="#E01500" stroke-width="2" stroke-linecap="round" stroke-linejoin="round" stroke-miterlimit="10" d="
			M-14.494,23.256c0.771-0.626,1.722-0.808,2.75-0.75"/>
	</g>
	<path fill="none" stroke="#E01500" stroke-width="2" stroke-linecap="round" stroke-linejoin="round" stroke-miterlimit="10" d="
		M-19.994,90.751c6.178,2.35,11.188,8.564,18.109,10.887c7.109,2.387,14.29,3.854,21.391,6.004
		c7.018,2.125,13.309,3.793,20.111,6.984c4.583,2.15,11.56,5.373,13.35,10.285"/>
	<path fill="none" stroke="#E01500" stroke-width="2" stroke-linecap="round" stroke-linejoin="round" stroke-miterlimit="10" d="
		M55.506,92.251c1.923,3.939-0.315,12.463-0.5,17c-0.202,4.963,2.11,14.082-3.484,16.6c-5.704,2.568-17.551-2.066-23.016-3.975
		c-8.939-3.125-15.73-6.588-25.504-6.014c-9.984,0.586-13.647,6.791-21.109,12.389c-3.967,2.977-8.144,5.713-13.146,5.137
		c-5.178-0.596-19.743-8.789-23.215-12.82"/>
	<path fill="none" stroke="#E01500" stroke-width="2" stroke-linecap="round" stroke-linejoin="round" stroke-miterlimit="10" d="
		M-16.474,62.921c-2.984,3.217-12.043,4.945-16.021-0.67c-3.188,10.229-5.409,14.634-9.75,24.506
		c-1.883,4.281-6.417,14.604-8,18.994c-0.895,2.482-4.555,12.922-4.225,14.816c0.291,1.67,6.972,5.883,8.428,7.471
		c2.83,3.088,5.221,6.576,8.146,9.576c5.204,5.334,10.734,10.184,18.4,11.637c-3.717-1.746-11.058-1.023-14.943-2.236
		c-6.18-1.928-7.65-3.715-12.945-7.291c-9.233-6.238-19.048-11.74-29.005-16.799c-3.986-2.027-17.607-4.674-17.607-4.674
		s1.911-2.34,5.091-5.99c8.392-9.633,18.456-13.033,30.851-13.562c-0.232-2.17-1.578-3.066-2.889-4.889
		c-2.705-3.766-4.366-6.822-5.927-11.295c-2.258-6.471-4.85-13.373-5.06-20.264c3.844,0.65,6.462,3.535,9.828,5.428
		c4.026,2.266,8.579,3.531,12.933,4.946c3.684,1.196,9.065,2.646,11.808,3.024"/>
	<path fill="none" stroke="#E01500" stroke-width="2" stroke-linecap="round" stroke-linejoin="round" stroke-miterlimit="10" d="
		M-10.744,121.993c0.313,3.715-3.134,10.73-4.368,14.424c-1.507,4.508-3.609,7.994-4.382,12.834"/>
	<path fill="none" stroke="#E01500" stroke-width="2" stroke-linecap="round" stroke-linejoin="round" stroke-miterlimit="10" d="
		M53.506,117.583c-0.563-3.174-8.285-6.777-11-8.332"/>
	<path fill="none" stroke="#E01500" stroke-width="2" stroke-linecap="round" stroke-linejoin="round" stroke-miterlimit="10" d="
		M53.506,108.585c-1.424-1.1-2.998-2.521-4.666-3"/>
	<path fill="none" stroke="#E01500" stroke-width="2" stroke-linecap="round" stroke-linejoin="round" stroke-miterlimit="10" d="
		M53.506,102.917c-0.035,0.012,0.489,0.545-0.246,0.291c-0.83-0.982-1.89-1.684-3.087-2.291"/>
	<path fill="none" stroke="#E01500" stroke-width="2" stroke-linecap="round" stroke-linejoin="round" stroke-miterlimit="10" d="
		M-51.16,119.251c2.385-0.014,8.185,4.047,10,5.666"/>
	<path fill="none" stroke="#E01500" stroke-width="2" stroke-linecap="round" stroke-linejoin="round" stroke-miterlimit="10" d="
		M-48.494,114.583c1.119-0.111,5.596,3.842,7.334,4.668"/>
	<path fill="none" stroke="#E01500" stroke-width="2" stroke-linecap="round" stroke-linejoin="round" stroke-miterlimit="10" d="
		M-45.494,109.917c1.133,0.633,2.435,1.32,3.334,2"/>
	<path fill="none" stroke="#E01500" stroke-width="2" stroke-linecap="round" stroke-linejoin="round" stroke-miterlimit="10" d="
		M-30.827,69.584c1.527,1.615,3.877,2.09,6,1.333"/>
	<path fill="none" stroke="#E01500" stroke-width="2" stroke-linecap="round" stroke-linejoin="round" stroke-miterlimit="10" d="
		M-32.16,74.251c1.077,0.23,2.098,0.873,2.666,1.666"/>
	<path fill="none" stroke="#E01500" stroke-width="2" stroke-linecap="round" stroke-linejoin="round" stroke-miterlimit="10" d="
		M48.173,121.917c-0.46-0.979-0.898,0.807-1.333,1.668"/>
	<path fill="none" stroke="#E01500" stroke-width="2" stroke-linecap="round" stroke-linejoin="round" stroke-miterlimit="10" d="
		M44.506,118.917c-0.186,1.492-1.029,2.895-2,4"/>
	<path fill="none" stroke="#E01500" stroke-width="2" stroke-linecap="round" stroke-linejoin="round" stroke-miterlimit="10" d="
		M40.506,117.585c-0.333,1.646-1.678,3.646-2.666,4.666"/>
	<path fill="none" stroke="#E01500" stroke-width="2" stroke-linecap="round" stroke-linejoin="round" stroke-miterlimit="10" d="
		M-34.494,141.917c-0.181,1.018-0.681,2.053-1.334,2.668"/>
	<path fill="none" stroke="#E01500" stroke-width="2" stroke-linecap="round" stroke-linejoin="round" stroke-miterlimit="10" d="
		M-37.828,138.917c1.248,0.475,0.002,2.361-1,3.334"/>
	<path fill="none" stroke="#E01500" stroke-width="2" stroke-linecap="round" stroke-linejoin="round" stroke-miterlimit="10" d="
		M-40.828,135.251c0.231,1.834-0.606,3.6-2,4.666"/>
</g>
</svg>
