<?xml version="1.0" encoding="utf-8"?>
<!-- Generator: Adobe Illustrator 15.0.2, SVG Export Plug-In . SVG Version: 6.00 Build 0)  -->
<!DOCTYPE svg PUBLIC "-//W3C//DTD SVG 1.1//EN" "http://www.w3.org/Graphics/SVG/1.1/DTD/svg11.dtd">
<svg version="1.1" id="Layer_1" xmlns="http://www.w3.org/2000/svg" xmlns:xlink="http://www.w3.org/1999/xlink" x="0px" y="0px"
	 width="100px" height="100px" viewBox="25.5 100.5 100 100" enable-background="new 25.5 100.5 100 100" xml:space="preserve">
<g>
	<path fill="none" stroke="#E01500" stroke-width="2" stroke-linecap="round" stroke-linejoin="round" stroke-miterlimit="10" d="
		M50.246,210.433C24.129,192.868,5.02,190.14,5.02,190.14"/>
	<path fill="none" stroke="#E01500" stroke-width="2" stroke-linecap="round" stroke-linejoin="round" stroke-miterlimit="10" d="
		M145.02,210.14c0,0-8.129-4.897-25.773-19.597"/>
	<path fill="none" stroke="#E01500" stroke-width="2" stroke-linecap="round" stroke-linejoin="round" stroke-miterlimit="10" d="
		M125.5,190.353c0,0-117.48,3.787-120.48-0.213s5-20,5-40s-10-35-5-40s120.48,0.193,120.48,0.193"/>
	<path fill="none" stroke="#E01500" stroke-width="2" stroke-linecap="round" stroke-linejoin="round" stroke-miterlimit="10" d="
		M10.02,185.89c4.824,1.492,9.832,0.045,15,0.75"/>
	<path fill="none" stroke="#E01500" stroke-width="2" stroke-linecap="round" stroke-linejoin="round" stroke-miterlimit="10" d="
		M11.52,179.14c2.608,2.473,8.545,2.486,12,1.75"/>
	<path fill="none" stroke="#E01500" stroke-width="2" stroke-linecap="round" stroke-linejoin="round" stroke-miterlimit="10" d="
		M13.27,173.14c2.455,0.912,5.497-0.213,8,0.75"/>
	<path fill="none" stroke="#E01500" stroke-width="2" stroke-linecap="round" stroke-linejoin="round" stroke-miterlimit="10" d="
		M14.77,166.89c1.043,0.637,2.235,0.828,3.5,0.75"/>
	<path fill="none" stroke="#E01500" stroke-width="2" stroke-linecap="round" stroke-linejoin="round" stroke-miterlimit="10" d="
		M7.77,113.39c2.525,0.236,5.213-1,8-1c2.405,0,6.842-0.68,8.75,0.75"/>
	<path fill="none" stroke="#E01500" stroke-width="2" stroke-linecap="round" stroke-linejoin="round" stroke-miterlimit="10" d="
		M8.77,117.39c2.563-0.08,5.085-0.492,7.75-0.5"/>
	<path fill="none" stroke="#E01500" stroke-width="2" stroke-linecap="round" stroke-linejoin="round" stroke-miterlimit="10" d="
		M11.02,123.14c0.771-0.626,1.722-0.809,2.75-0.75"/>
	<path fill="none" stroke="#E01500" stroke-width="2" stroke-linecap="round" stroke-linejoin="round" stroke-miterlimit="10" d="
		M137.02,207.14c-0.734,1.139-1.375,2.881-2,2"/>
	<path fill="none" stroke="#E01500" stroke-width="2" stroke-linecap="round" stroke-linejoin="round" stroke-miterlimit="10" d="
		M132.686,204.14c-1.023,1.83-1.744,4.186-3,5.666"/>
	<path fill="none" stroke="#E01500" stroke-width="2" stroke-linecap="round" stroke-linejoin="round" stroke-miterlimit="10" d="
		M128.352,201.474c-1.426,1.932-1.186,6.436-3.332,7.332"/>
	<path fill="none" stroke="#E01500" stroke-width="2" stroke-linecap="round" stroke-linejoin="round" stroke-miterlimit="10" d="
		M124.686,199.14c-1.336,2.906-2.012,9.504-4.334,11"/>
	<path fill="none" stroke="#E01500" stroke-width="2" stroke-linecap="round" stroke-linejoin="round" stroke-miterlimit="10" d="
		M119.686,197.806c1.027,0.695-2.285,9.809-3.666,11.668"/>
	<path fill="none" stroke="#E01500" stroke-width="2" stroke-linecap="round" stroke-linejoin="round" stroke-miterlimit="10" d="
		M116.686,193.14c0.086,3.467-3.545,11.363-6.334,13.334"/>
	<path fill="none" stroke="#E01500" stroke-width="2" stroke-linecap="round" stroke-linejoin="round" stroke-miterlimit="10" d="
		M108.686,196.14c-1.072,1.168-1.807,2.877-2.666,4.334"/>
</g>
</svg>
