<?xml version="1.0" encoding="utf-8"?>
<!-- Generator: Adobe Illustrator 15.0.2, SVG Export Plug-In . SVG Version: 6.00 Build 0)  -->
<!DOCTYPE svg PUBLIC "-//W3C//DTD SVG 1.1//EN" "http://www.w3.org/Graphics/SVG/1.1/DTD/svg11.dtd">
<svg version="1.1" id="Layer_1" xmlns="http://www.w3.org/2000/svg" xmlns:xlink="http://www.w3.org/1999/xlink" x="0px" y="0px"
	 width="100px" height="100px" viewBox="25.5 100.5 100 100" enable-background="new 25.5 100.5 100 100" xml:space="preserve">
<g>
	<g>
		<path fill="none" stroke="#E01500" stroke-width="2" stroke-linecap="round" stroke-linejoin="round" stroke-miterlimit="10" d="
			M25.5,190.5c0,0,117.494,4.257,120.494,0.257s-5-20.001-5-40.001s10-35,5-40S25.5,110.5,25.5,110.5"/>
		<path fill="none" stroke="#E01500" stroke-width="2" stroke-linecap="round" stroke-linejoin="round" stroke-miterlimit="10" d="
			M140.994,186.507c-4.824,1.492-9.832,0.045-15,0.75"/>
		<path fill="none" stroke="#E01500" stroke-width="2" stroke-linecap="round" stroke-linejoin="round" stroke-miterlimit="10" d="
			M139.494,179.757c-2.608,2.473-8.545,2.486-12,1.75"/>
		<path fill="none" stroke="#E01500" stroke-width="2" stroke-linecap="round" stroke-linejoin="round" stroke-miterlimit="10" d="
			M137.744,173.756c-2.455,0.912-5.497-0.214-8,0.75"/>
		<path fill="none" stroke="#E01500" stroke-width="2" stroke-linecap="round" stroke-linejoin="round" stroke-miterlimit="10" d="
			M136.244,167.506c-1.043,0.636-2.235,0.829-3.5,0.75"/>
		<path fill="none" stroke="#E01500" stroke-width="2" stroke-linecap="round" stroke-linejoin="round" stroke-miterlimit="10" d="
			M143.244,114.006c-2.525,0.237-5.213-1-8-1c-2.405,0-6.842-0.68-8.75,0.75"/>
		<path fill="none" stroke="#E01500" stroke-width="2" stroke-linecap="round" stroke-linejoin="round" stroke-miterlimit="10" d="
			M142.244,118.006c-2.563-0.079-5.085-0.491-7.75-0.5"/>
		<path fill="none" stroke="#E01500" stroke-width="2" stroke-linecap="round" stroke-linejoin="round" stroke-miterlimit="10" d="
			M139.994,123.756c-0.771-0.626-1.722-0.808-2.75-0.75"/>
	</g>
	<path fill="none" stroke="#E01500" stroke-width="2" stroke-linecap="round" stroke-linejoin="round" stroke-miterlimit="10" d="
		M145.494,191.251c-6.178,2.35-11.188,8.564-18.109,10.887c-7.109,2.387-14.29,3.854-21.391,6.004
		c-7.018,2.125-13.309,3.793-20.111,6.984c-4.583,2.15-11.56,5.373-13.35,10.285"/>
	<path fill="none" stroke="#E01500" stroke-width="2" stroke-linecap="round" stroke-linejoin="round" stroke-miterlimit="10" d="
		M69.994,192.751c-1.923,3.939,0.315,12.463,0.5,17c0.202,4.963-2.11,14.082,3.484,16.6c5.704,2.568,17.551-2.066,23.016-3.975
		c8.939-3.125,15.73-6.588,25.504-6.014c9.984,0.586,13.647,6.791,21.109,12.389c3.967,2.977,8.144,5.713,13.146,5.137
		c5.178-0.596,19.743-8.789,23.215-12.82"/>
	<path fill="none" stroke="#E01500" stroke-width="2" stroke-linecap="round" stroke-linejoin="round" stroke-miterlimit="10" d="
		M141.974,163.421c2.984,3.217,12.043,4.945,16.021-0.67c3.188,10.229,5.409,14.634,9.75,24.506c1.883,4.281,6.417,14.604,8,18.994
		c0.895,2.482,4.555,12.922,4.225,14.816c-0.291,1.67-6.972,5.883-8.428,7.471c-2.83,3.088-5.221,6.576-8.146,9.576
		c-5.204,5.334-10.734,10.184-18.4,11.637c3.717-1.746,11.058-1.023,14.943-2.236c6.18-1.928,7.65-3.715,12.945-7.291
		c9.233-6.238,19.048-11.74,29.005-16.799c3.986-2.027,17.607-4.674,17.607-4.674s-1.911-2.34-5.091-5.99
		c-8.392-9.633-18.456-13.033-30.851-13.562c0.232-2.17,1.578-3.066,2.889-4.889c2.705-3.766,4.366-6.822,5.927-11.295
		c2.258-6.471,4.85-13.373,5.06-20.264c-3.844,0.65-6.462,3.535-9.828,5.428c-4.026,2.266-8.579,3.531-12.933,4.946
		c-3.684,1.196-9.065,2.646-11.808,3.024"/>
	<path fill="none" stroke="#E01500" stroke-width="2" stroke-linecap="round" stroke-linejoin="round" stroke-miterlimit="10" d="
		M136.244,222.493c-0.313,3.715,3.134,10.73,4.368,14.424c1.507,4.508,3.609,7.994,4.382,12.834"/>
	<path fill="none" stroke="#E01500" stroke-width="2" stroke-linecap="round" stroke-linejoin="round" stroke-miterlimit="10" d="
		M71.994,218.083c0.563-3.174,8.285-6.777,11-8.332"/>
	<path fill="none" stroke="#E01500" stroke-width="2" stroke-linecap="round" stroke-linejoin="round" stroke-miterlimit="10" d="
		M71.994,209.085c1.424-1.1,2.998-2.521,4.666-3"/>
	<path fill="none" stroke="#E01500" stroke-width="2" stroke-linecap="round" stroke-linejoin="round" stroke-miterlimit="10" d="
		M71.994,203.417c0.035,0.012-0.489,0.545,0.246,0.291c0.83-0.982,1.89-1.684,3.087-2.291"/>
	<path fill="none" stroke="#E01500" stroke-width="2" stroke-linecap="round" stroke-linejoin="round" stroke-miterlimit="10" d="
		M176.66,219.751c-2.385-0.014-8.185,4.047-10,5.666"/>
	<path fill="none" stroke="#E01500" stroke-width="2" stroke-linecap="round" stroke-linejoin="round" stroke-miterlimit="10" d="
		M173.994,215.083c-1.119-0.111-5.596,3.842-7.334,4.668"/>
	<path fill="none" stroke="#E01500" stroke-width="2" stroke-linecap="round" stroke-linejoin="round" stroke-miterlimit="10" d="
		M170.994,210.417c-1.133,0.633-2.435,1.32-3.334,2"/>
	<path fill="none" stroke="#E01500" stroke-width="2" stroke-linecap="round" stroke-linejoin="round" stroke-miterlimit="10" d="
		M156.327,170.084c-1.527,1.615-3.877,2.09-6,1.333"/>
	<path fill="none" stroke="#E01500" stroke-width="2" stroke-linecap="round" stroke-linejoin="round" stroke-miterlimit="10" d="
		M157.66,174.751c-1.077,0.23-2.098,0.873-2.666,1.666"/>
	<path fill="none" stroke="#E01500" stroke-width="2" stroke-linecap="round" stroke-linejoin="round" stroke-miterlimit="10" d="
		M77.327,222.417c0.46-0.979,0.898,0.807,1.333,1.668"/>
	<path fill="none" stroke="#E01500" stroke-width="2" stroke-linecap="round" stroke-linejoin="round" stroke-miterlimit="10" d="
		M80.994,219.417c0.186,1.492,1.029,2.895,2,4"/>
	<path fill="none" stroke="#E01500" stroke-width="2" stroke-linecap="round" stroke-linejoin="round" stroke-miterlimit="10" d="
		M84.994,218.085c0.333,1.646,1.678,3.646,2.666,4.666"/>
	<path fill="none" stroke="#E01500" stroke-width="2" stroke-linecap="round" stroke-linejoin="round" stroke-miterlimit="10" d="
		M159.994,242.417c0.181,1.018,0.681,2.053,1.334,2.668"/>
	<path fill="none" stroke="#E01500" stroke-width="2" stroke-linecap="round" stroke-linejoin="round" stroke-miterlimit="10" d="
		M163.328,239.417c-1.248,0.475-0.002,2.361,1,3.334"/>
	<path fill="none" stroke="#E01500" stroke-width="2" stroke-linecap="round" stroke-linejoin="round" stroke-miterlimit="10" d="
		M166.328,235.751c-0.231,1.834,0.606,3.6,2,4.666"/>
</g>
</svg>
