<?xml version="1.0" encoding="utf-8"?>
<!-- Generator: Adobe Illustrator 15.0.2, SVG Export Plug-In . SVG Version: 6.00 Build 0)  -->
<!DOCTYPE svg PUBLIC "-//W3C//DTD SVG 1.1//EN" "http://www.w3.org/Graphics/SVG/1.1/DTD/svg11.dtd">
<svg version="1.1" id="Layer_1" xmlns="http://www.w3.org/2000/svg" xmlns:xlink="http://www.w3.org/1999/xlink" x="0px" y="0px"
	 width="100px" height="100px" viewBox="25.5 100.5 100 100" enable-background="new 25.5 100.5 100 100" xml:space="preserve">
<path fill="none" stroke="#E01500" stroke-width="2" stroke-linecap="round" stroke-linejoin="round" stroke-miterlimit="10" d="
	M-32.5,90.515"/>
<g>
	<path fill="none" stroke="#E01500" stroke-width="2" stroke-linecap="round" stroke-linejoin="round" stroke-miterlimit="10" d="
		M125.5,190.5c0,0-117.322,4.356-120.322,0.356s5-20,5-40c0-19.999-10-34.999-5-39.999c0.946-0.947,127.833-0.031,120.322-0.357"/>
	<path fill="none" stroke="#E01500" stroke-width="2" stroke-linecap="round" stroke-linejoin="round" stroke-miterlimit="10" d="
		M7.778,187.265c3.777,0.664,9.324,1.736,13.25,0.5"/>
	<path fill="none" stroke="#E01500" stroke-width="2" stroke-linecap="round" stroke-linejoin="round" stroke-miterlimit="10" d="
		M9.278,183.265c-0.062-0.119-0.619-0.286-0.285-0.261c1.688,0.346,3.5,0.973,5.285,0.761"/>
	<path fill="none" stroke="#E01500" stroke-width="2" stroke-linecap="round" stroke-linejoin="round" stroke-miterlimit="10" d="
		M10.278,178.015c0.667,0,1.333,0,2,0"/>
	<path fill="none" stroke="#E01500" stroke-width="2" stroke-linecap="round" stroke-linejoin="round" stroke-miterlimit="10" d="
		M7.528,116.765c5.631-2.786,11.639,0.651,17.25,0"/>
	<path fill="none" stroke="#E01500" stroke-width="2" stroke-linecap="round" stroke-linejoin="round" stroke-miterlimit="10" d="
		M9.028,120.515c0.807,0.276,5.533-0.652,7.5-0.5"/>
	<path fill="none" stroke="#E01500" stroke-width="2" stroke-linecap="round" stroke-linejoin="round" stroke-miterlimit="10" d="
		M10.028,125.765c1.328,0.053,2.422-0.553,3.75-0.5"/>
</g>
</svg>
