<?xml version="1.0" encoding="utf-8"?>
<!-- Generator: Adobe Illustrator 15.0.2, SVG Export Plug-In . SVG Version: 6.00 Build 0)  -->
<!DOCTYPE svg PUBLIC "-//W3C//DTD SVG 1.1//EN" "http://www.w3.org/Graphics/SVG/1.1/DTD/svg11.dtd">
<svg version="1.1" id="Layer_1" xmlns="http://www.w3.org/2000/svg" xmlns:xlink="http://www.w3.org/1999/xlink" x="0px" y="0px"
	 width="100px" height="100px" viewBox="0 0 100 100" enable-background="new 0 0 100 100" xml:space="preserve">
<g>
	<path fill="none" stroke="#E01500" stroke-width="2" stroke-linecap="round" stroke-linejoin="round" stroke-miterlimit="10" d="
		M0.321,90c0,0,117.322,4.356,120.322,0.356s-5-20-5-40c0-19.999,10-34.999,5-39.999C119.695,9.41-7.191,10.326,0.321,10"/>
	<path fill="none" stroke="#E01500" stroke-width="2" stroke-linecap="round" stroke-linejoin="round" stroke-miterlimit="10" d="
		M118.043,86.765c-3.777,0.664-9.324,1.736-13.25,0.5"/>
	<path fill="none" stroke="#E01500" stroke-width="2" stroke-linecap="round" stroke-linejoin="round" stroke-miterlimit="10" d="
		M116.543,82.765c0.061-0.119,0.619-0.286,0.285-0.261c-1.689,0.346-3.5,0.973-5.285,0.761"/>
	<path fill="none" stroke="#E01500" stroke-width="2" stroke-linecap="round" stroke-linejoin="round" stroke-miterlimit="10" d="
		M115.543,77.515c-0.668,0-1.334,0-2,0"/>
	<path fill="none" stroke="#E01500" stroke-width="2" stroke-linecap="round" stroke-linejoin="round" stroke-miterlimit="10" d="
		M118.293,16.265c-5.631-2.786-11.639,0.651-17.25,0"/>
	<path fill="none" stroke="#E01500" stroke-width="2" stroke-linecap="round" stroke-linejoin="round" stroke-miterlimit="10" d="
		M116.793,20.015c-0.807,0.276-5.533-0.652-7.5-0.5"/>
	<path fill="none" stroke="#E01500" stroke-width="2" stroke-linecap="round" stroke-linejoin="round" stroke-miterlimit="10" d="
		M115.793,25.265c-1.328,0.053-2.422-0.553-3.75-0.5"/>
</g>
</svg>
