<?xml version="1.0" encoding="utf-8"?>
<!-- Generator: Adobe Illustrator 15.0.2, SVG Export Plug-In . SVG Version: 6.00 Build 0)  -->
<!DOCTYPE svg PUBLIC "-//W3C//DTD SVG 1.1//EN" "http://www.w3.org/Graphics/SVG/1.1/DTD/svg11.dtd">
<svg version="1.1" id="Layer_1" xmlns="http://www.w3.org/2000/svg" xmlns:xlink="http://www.w3.org/1999/xlink" x="0px" y="0px"
	 width="100px" height="100px" viewBox="0 0 100 100" enable-background="new 0 0 100 100" xml:space="preserve">
<g>
	<g>
		<path fill="none" stroke="#E01500" stroke-width="2" stroke-linecap="round" stroke-linejoin="round" stroke-miterlimit="10" d="
			M100,90c0,0-117,4-120,0s5-20,5-40c0-20-10-35-5-40s120,0,120,0"/>
		<path fill="none" stroke="#E01500" stroke-width="2" stroke-linecap="round" stroke-linejoin="round" stroke-miterlimit="10" d="
			M-15,85.75c4.824,1.492,9.832,0.045,15,0.75"/>
		<path fill="none" stroke="#E01500" stroke-width="2" stroke-linecap="round" stroke-linejoin="round" stroke-miterlimit="10" d="
			M-13.5,79c2.609,2.473,8.545,2.486,12,1.75"/>
		<path fill="none" stroke="#E01500" stroke-width="2" stroke-linecap="round" stroke-linejoin="round" stroke-miterlimit="10" d="
			M-11.75,73c2.455,0.912,5.498-0.213,8,0.75"/>
		<path fill="none" stroke="#E01500" stroke-width="2" stroke-linecap="round" stroke-linejoin="round" stroke-miterlimit="10" d="
			M-10.25,66.75c1.043,0.637,2.236,0.828,3.5,0.75"/>
		<path fill="none" stroke="#E01500" stroke-width="2" stroke-linecap="round" stroke-linejoin="round" stroke-miterlimit="10" d="
			M-17.25,13.25c2.525,0.237,5.213-1,8-1c2.406,0,6.842-0.68,8.75,0.75"/>
		<path fill="none" stroke="#E01500" stroke-width="2" stroke-linecap="round" stroke-linejoin="round" stroke-miterlimit="10" d="
			M-16.25,17.25c2.564-0.08,5.086-0.492,7.75-0.5"/>
		<path fill="none" stroke="#E01500" stroke-width="2" stroke-linecap="round" stroke-linejoin="round" stroke-miterlimit="10" d="
			M-14,23c0.771-0.625,1.723-0.808,2.75-0.75"/>
	</g>
	<g>
		<path fill="none" stroke="#E01500" stroke-width="2" stroke-linecap="round" stroke-linejoin="round" stroke-miterlimit="10" d="
			M-19.5,90.494c6.178,2.35,11.189,8.564,18.109,10.887c7.109,2.387,14.291,3.854,21.391,6.004
			c7.018,2.125,13.309,3.793,20.111,6.984c4.584,2.15,11.561,5.373,13.35,10.285"/>
		<path fill="none" stroke="#E01500" stroke-width="2" stroke-linecap="round" stroke-linejoin="round" stroke-miterlimit="10" d="
			M56,91.994c1.924,3.941-0.314,12.463-0.5,17c-0.201,4.963,2.111,14.082-3.484,16.602c-5.703,2.568-17.551-2.066-23.016-3.977
			c-8.939-3.125-15.73-6.588-25.504-6.014c-9.984,0.586-13.646,6.791-21.109,12.389c-3.967,2.977-8.143,5.713-13.146,5.137
			c-5.178-0.596-19.742-8.789-23.215-12.82"/>
		<path fill="none" stroke="#E01500" stroke-width="2" stroke-linecap="round" stroke-linejoin="round" stroke-miterlimit="10" d="
			M-15.979,62.664c-2.984,3.217-12.043,4.945-16.021-0.67c-3.188,10.229-5.408,14.635-9.75,24.506
			c-1.883,4.281-6.416,14.604-8,18.994c-0.895,2.484-4.555,12.922-4.225,14.816c0.291,1.672,6.973,5.883,8.428,7.473
			c2.83,3.088,5.221,6.576,8.146,9.574c5.205,5.334,10.734,10.186,18.4,11.637c-3.717-1.744-11.057-1.021-14.943-2.234
			c-6.18-1.928-7.65-3.715-12.945-7.293c-9.232-6.238-19.047-11.738-29.004-16.799c-3.986-2.025-17.607-4.674-17.607-4.674
			s1.91-2.34,5.09-5.99c8.393-9.633,18.457-13.033,30.852-13.561c-0.232-2.172-1.578-3.066-2.889-4.891
			c-2.705-3.764-4.367-6.822-5.928-11.295c-2.258-6.471-4.85-13.373-5.059-20.264c3.844,0.65,6.461,3.535,9.828,5.43
			c4.025,2.266,8.578,3.531,12.932,4.945c3.684,1.197,9.066,2.645,11.809,3.023"/>
		<path fill="none" stroke="#E01500" stroke-width="2" stroke-linecap="round" stroke-linejoin="round" stroke-miterlimit="10" d="
			M-10.25,121.738c0.314,3.715-3.133,10.73-4.367,14.424c-1.508,4.506-3.609,7.992-4.383,12.832"/>
		<path fill="none" stroke="#E01500" stroke-width="2" stroke-linecap="round" stroke-linejoin="round" stroke-miterlimit="10" d="
			M54,117.328c-0.562-3.174-8.285-6.779-11-8.334"/>
		<path fill="none" stroke="#E01500" stroke-width="2" stroke-linecap="round" stroke-linejoin="round" stroke-miterlimit="10" d="
			M54,108.328c-1.424-1.098-2.998-2.521-4.666-3"/>
		<path fill="none" stroke="#E01500" stroke-width="2" stroke-linecap="round" stroke-linejoin="round" stroke-miterlimit="10" d="
			M54,102.66c-0.035,0.012,0.49,0.545-0.246,0.291c-0.83-0.982-1.889-1.684-3.086-2.291"/>
		<path fill="none" stroke="#E01500" stroke-width="2" stroke-linecap="round" stroke-linejoin="round" stroke-miterlimit="10" d="
			M-50.666,118.994c2.385-0.014,8.186,4.047,10,5.668"/>
		<path fill="none" stroke="#E01500" stroke-width="2" stroke-linecap="round" stroke-linejoin="round" stroke-miterlimit="10" d="
			M-48,114.328c1.119-0.113,5.596,3.84,7.334,4.666"/>
		<path fill="none" stroke="#E01500" stroke-width="2" stroke-linecap="round" stroke-linejoin="round" stroke-miterlimit="10" d="
			M-45,109.66c1.133,0.633,2.436,1.32,3.334,2"/>
		<path fill="none" stroke="#E01500" stroke-width="2" stroke-linecap="round" stroke-linejoin="round" stroke-miterlimit="10" d="
			M-30.332,69.328c1.527,1.615,3.877,2.09,6,1.332"/>
		<path fill="none" stroke="#E01500" stroke-width="2" stroke-linecap="round" stroke-linejoin="round" stroke-miterlimit="10" d="
			M-31.666,73.994c1.078,0.23,2.098,0.875,2.666,1.666"/>
		<path fill="none" stroke="#E01500" stroke-width="2" stroke-linecap="round" stroke-linejoin="round" stroke-miterlimit="10" d="
			M48.668,121.662c-0.461-0.98-0.898,0.805-1.334,1.666"/>
		<path fill="none" stroke="#E01500" stroke-width="2" stroke-linecap="round" stroke-linejoin="round" stroke-miterlimit="10" d="
			M45,118.662c-0.186,1.49-1.029,2.895-2,4"/>
		<path fill="none" stroke="#E01500" stroke-width="2" stroke-linecap="round" stroke-linejoin="round" stroke-miterlimit="10" d="
			M41,117.328c-0.332,1.646-1.678,3.646-2.666,4.666"/>
		<path fill="none" stroke="#E01500" stroke-width="2" stroke-linecap="round" stroke-linejoin="round" stroke-miterlimit="10" d="
			M-34,141.662c-0.18,1.018-0.68,2.051-1.334,2.666"/>
		<path fill="none" stroke="#E01500" stroke-width="2" stroke-linecap="round" stroke-linejoin="round" stroke-miterlimit="10" d="
			M-37.334,138.662c1.248,0.475,0.002,2.359-1,3.332"/>
		<path fill="none" stroke="#E01500" stroke-width="2" stroke-linecap="round" stroke-linejoin="round" stroke-miterlimit="10" d="
			M-40.334,134.994c0.232,1.834-0.605,3.602-2,4.668"/>
	</g>
</g>
</svg>
