<?xml version="1.0" encoding="utf-8"?>
<!-- Generator: Adobe Illustrator 15.0.2, SVG Export Plug-In . SVG Version: 6.00 Build 0)  -->
<!DOCTYPE svg PUBLIC "-//W3C//DTD SVG 1.1//EN" "http://www.w3.org/Graphics/SVG/1.1/DTD/svg11.dtd">
<svg version="1.1" id="Layer_1" xmlns="http://www.w3.org/2000/svg" xmlns:xlink="http://www.w3.org/1999/xlink" x="0px" y="0px"
	 width="100px" height="100px" viewBox="0 0 100 100" enable-background="new 0 0 100 100" xml:space="preserve">
<g>
	<path fill="none" stroke="#E01500" stroke-width="2" stroke-linecap="round" stroke-linejoin="round" stroke-miterlimit="10" d="
		M-15,14.25c4.824-1.492,9.832-0.045,15-0.75"/>
	<path fill="none" stroke="#E01500" stroke-width="2" stroke-linecap="round" stroke-linejoin="round" stroke-miterlimit="10" d="
		M-13.5,21c2.608-2.474,8.545-2.487,12-1.75"/>
	<path fill="none" stroke="#E01500" stroke-width="2" stroke-linecap="round" stroke-linejoin="round" stroke-miterlimit="10" d="
		M-11.75,27c2.455-0.912,5.497,0.213,8-0.75"/>
	<path fill="none" stroke="#E01500" stroke-width="2" stroke-linecap="round" stroke-linejoin="round" stroke-miterlimit="10" d="
		M-10.25,33.25c1.043-0.637,2.235-0.828,3.5-0.75"/>
	<path fill="none" stroke="#E01500" stroke-width="2" stroke-linecap="round" stroke-linejoin="round" stroke-miterlimit="10" d="
		M-17.25,86.75c2.525-0.236,5.213,1,8,1c2.405,0,6.842,0.68,8.75-0.75"/>
	<path fill="none" stroke="#E01500" stroke-width="2" stroke-linecap="round" stroke-linejoin="round" stroke-miterlimit="10" d="
		M-16.25,82.75c2.563,0.08,5.085,0.492,7.75,0.5"/>
	<path fill="none" stroke="#E01500" stroke-width="2" stroke-linecap="round" stroke-linejoin="round" stroke-miterlimit="10" d="
		M-14,77c0.771,0.625,1.722,0.808,2.75,0.75"/>
	<path fill="none" stroke="#E01500" stroke-width="2" stroke-linecap="round" stroke-linejoin="round" stroke-miterlimit="10" d="
		M18,5c-0.71-0.381,0.134,1.654,0.5,3"/>
	<path fill="none" stroke="#E01500" stroke-width="2" stroke-linecap="round" stroke-linejoin="round" stroke-miterlimit="10" d="
		M22,4c0.368,1.146,0.247,2.521,0.5,3.75"/>
	<path fill="none" stroke="#E01500" stroke-width="2" stroke-linecap="round" stroke-linejoin="round" stroke-miterlimit="10" d="
		M26,2.25c0,1.551-0.253,3.291,0.25,4.75"/>
	<path fill="none" stroke="#E01500" stroke-width="2" stroke-linecap="round" stroke-linejoin="round" stroke-miterlimit="10" d="
		M19-8.75c5.166-0.816,12.221-3.779,16.75,0.5"/>
	<path fill="none" stroke="#E01500" stroke-width="2" stroke-linecap="round" stroke-linejoin="round" stroke-miterlimit="10" d="
		M25.5-5.25C27.56-5.843,31.213-6.286,33-5"/>
	<path fill="none" stroke="#E01500" stroke-width="2" stroke-linecap="round" stroke-linejoin="round" stroke-miterlimit="10" d="
		M-50.5-19.75c0.111,0.753,0.283,1.523,0.5,2.25"/>
	<path fill="none" stroke="#E01500" stroke-width="2" stroke-linecap="round" stroke-linejoin="round" stroke-miterlimit="10" d="
		M-46.5-20.25c0.175,1.725,0.303,3.635,0.75,5.25"/>
	<path fill="none" stroke="#E01500" stroke-width="2" stroke-linecap="round" stroke-linejoin="round" stroke-miterlimit="10" d="
		M-42.25-22c0.54,1.757,0.426,4.614,1.5,6"/>
	<path fill="none" stroke="#E01500" stroke-width="2" stroke-linecap="round" stroke-linejoin="round" stroke-miterlimit="10" d="
		M-34.25-32.5c1.637-0.281,3.269-1.17,4.999-1.249c1.636-0.075,3.142,0.451,4.751,0.499"/>
	<path fill="none" stroke="#E01500" stroke-width="2" stroke-linecap="round" stroke-linejoin="round" stroke-miterlimit="10" d="
		M-36.75-29.5c1.313-0.512,2.566,0.168,4,0"/>
	<path fill="none" stroke="#E01500" stroke-width="2" stroke-linecap="round" stroke-linejoin="round" stroke-miterlimit="10" d="
		M-71.25,28c2.524-2.755,8.57,1.073,11.5,1"/>
	<path fill="none" stroke="#E01500" stroke-width="2" stroke-linecap="round" stroke-linejoin="round" stroke-miterlimit="10" d="
		M-66.5,22.5c1.191-0.285,3.48,0.57,4.75,1"/>
	<path fill="none" stroke="#E01500" stroke-width="2" stroke-linecap="round" stroke-linejoin="round" stroke-miterlimit="10" d="
		M-49.25,52.75c1.267,1.276,5.927,2.511,7.75,1.75"/>
	<path fill="none" stroke="#E01500" stroke-width="2" stroke-linecap="round" stroke-linejoin="round" stroke-miterlimit="10" d="
		M-48.5,47.75c0.36,0.911,1.58,1.497,2.75,1.25"/>
	<path fill="none" stroke="#E01500" stroke-width="2" stroke-linecap="round" stroke-linejoin="round" stroke-miterlimit="10" d="
		M-15.666-37.5c0,8.018-1.497,19.882,1.333,26.666"/>
	<path fill="none" stroke="#E01500" stroke-width="2" stroke-linecap="round" stroke-linejoin="round" stroke-miterlimit="10" d="
		M-53.666,33.166c-7.962,0.739-15.67-2.406-23.982-2.016c-8.531,0.4-15.905,2.716-23.784,5.412
		c3.359-6.576,6.999-13.217,11.23-19.396c3.364-4.913,8.97-8.727,11.785-13.85c-12.543-6.021-28.579-20.551-27.281-36.583
		c11.382,8.815,31.941,5.608,45.365,4.433c16.223-1.42,27.779-10.353,44.667-8.666c-12.333,8-29.598,15.667-44.334,17"/>
	<path fill="none" stroke="#E01500" stroke-width="2" stroke-linecap="round" stroke-linejoin="round" stroke-miterlimit="10" d="
		M-17.666,69.166c-6.992,0.739-12.107-2.727-18.148-5.167c-5.364-2.166-13.631-7.515-19.085-7.6
		C-55.488,43.972-51.595,31.538-51,19.166c0.324-6.756,0.211-13.013-2.002-19.333C-55.146-6.289-60.428-13.859-60-20.5
		c15.672,8.358,34.678,9.616,53,9.666c12.064,0.033,23.822-3.828,35.904-3.728c4.155,0.034,12.87-0.153,14.875,3.907
		C39.176,2.809-9.119,7.033-19.833,9.666"/>
	<path fill="none" stroke="#E01500" stroke-width="2" stroke-linecap="round" stroke-linejoin="round" stroke-miterlimit="10" d="
		M45.668,8.584c0,0-0.959-6.61-1.335-9.251c-0.415-2.916-0.554-9.987-0.554-9.987"/>
	<path fill="none" stroke="#E01500" stroke-width="2" stroke-linecap="round" stroke-linejoin="round" stroke-miterlimit="10" d="
		M100,10c0,0-117-4-120,0s5,20,5,40s-10,35-5,40s120,0,120,0"/>
</g>
</svg>
