<?xml version="1.0" encoding="utf-8"?>
<!-- Generator: Adobe Illustrator 15.0.2, SVG Export Plug-In . SVG Version: 6.00 Build 0)  -->
<!DOCTYPE svg PUBLIC "-//W3C//DTD SVG 1.1//EN" "http://www.w3.org/Graphics/SVG/1.1/DTD/svg11.dtd">
<svg version="1.1" id="Layer_1" xmlns="http://www.w3.org/2000/svg" xmlns:xlink="http://www.w3.org/1999/xlink" x="0px" y="0px"
	 width="100px" height="100px" viewBox="0 0 100 100" enable-background="new 0 0 100 100" xml:space="preserve">
<g>
	<g>
		<path fill="none" stroke="#E01500" stroke-width="2" stroke-linecap="round" stroke-linejoin="round" stroke-miterlimit="10" d="
			M100,10c0,0-117-4-120,0s5,20,5,40s-10,35-5,40s120,0,120,0"/>
		<path fill="none" stroke="#E01500" stroke-width="2" stroke-linecap="round" stroke-linejoin="round" stroke-miterlimit="10" d="
			M-15,14.25c4.824-1.492,9.832-0.045,15-0.75"/>
		<path fill="none" stroke="#E01500" stroke-width="2" stroke-linecap="round" stroke-linejoin="round" stroke-miterlimit="10" d="
			M-13.5,21c2.608-2.474,8.545-2.487,12-1.75"/>
		<path fill="none" stroke="#E01500" stroke-width="2" stroke-linecap="round" stroke-linejoin="round" stroke-miterlimit="10" d="
			M-11.75,27c2.455-0.912,5.497,0.213,8-0.75"/>
		<path fill="none" stroke="#E01500" stroke-width="2" stroke-linecap="round" stroke-linejoin="round" stroke-miterlimit="10" d="
			M-10.25,33.25c1.043-0.637,2.235-0.828,3.5-0.75"/>
		<path fill="none" stroke="#E01500" stroke-width="2" stroke-linecap="round" stroke-linejoin="round" stroke-miterlimit="10" d="
			M-17.25,86.75c2.525-0.236,5.213,1,8,1c2.405,0,6.842,0.68,8.75-0.75"/>
		<path fill="none" stroke="#E01500" stroke-width="2" stroke-linecap="round" stroke-linejoin="round" stroke-miterlimit="10" d="
			M-16.25,82.75c2.563,0.08,5.085,0.492,7.75,0.5"/>
		<path fill="none" stroke="#E01500" stroke-width="2" stroke-linecap="round" stroke-linejoin="round" stroke-miterlimit="10" d="
			M-14,77c0.771,0.625,1.722,0.808,2.75,0.75"/>
	</g>
	<path fill="none" stroke="#E01500" stroke-width="2" stroke-linecap="round" stroke-linejoin="round" stroke-miterlimit="10" d="
		M-20.667,89.5c4.062,5.424,17.187,5.56,23.167,7c7.152,1.723,13.721,3.604,20.425,7.421c-1.054-3.384-0.871-7.825-1.258-11.421"/>
	<path fill="none" stroke="#E01500" stroke-width="2" stroke-linecap="round" stroke-linejoin="round" stroke-miterlimit="10" d="
		M-18.5,24.166c-2.227-3.481-13.924-7.32-18.167-8.166c-6.186-1.233-14.711-0.31-20.833,0.833c-11.849,2.21-24,10.5-33,19.833
		c10.023,0.745,30.179,1.055,31.5,14C-65.976,53.609-76.167,56-82,60.5c-5.377,4.148-10.452,16.328-11.167,23.166
		c9.769-12.04,36.261,0.788,47.182,4.819C-30.547,94.186-16.504,103,1,103c7.003,0,15.331-1.117,21.925,0.921"/>
	<path fill="none" stroke="#E01500" stroke-width="2" stroke-linecap="round" stroke-linejoin="round" stroke-miterlimit="10" d="
		M7.5,96c-0.531-0.783-0.724-2.214-0.5-3.5"/>
	<path fill="none" stroke="#E01500" stroke-width="2" stroke-linecap="round" stroke-linejoin="round" stroke-miterlimit="10" d="
		M3,94.5c-0.118,0.171,0.138,0.281-0.163,0.356C2.449,94.41,2.081,93.535,2,93.166"/>
	<path fill="none" stroke="#E01500" stroke-width="2" stroke-linecap="round" stroke-linejoin="round" stroke-miterlimit="10" d="
		M12.5,96.666c-0.471-0.941-0.945-1.879-0.834-3"/>
	<path fill="none" stroke="#E01500" stroke-width="2" stroke-linecap="round" stroke-linejoin="round" stroke-miterlimit="10" d="
		M-66.833,77.5c2.121,0.063,3.974,0.91,5.996,1.337c2.266,0.479,3.864,2.066,6.17,2.663"/>
	<path fill="none" stroke="#E01500" stroke-width="2" stroke-linecap="round" stroke-linejoin="round" stroke-miterlimit="10" d="
		M-61.333,73.333c2.142-0.356,4.962,1.426,7,2"/>
	<path fill="none" stroke="#E01500" stroke-width="2" stroke-linecap="round" stroke-linejoin="round" stroke-miterlimit="10" d="
		M-55.333,68.5c0.974,0.235,2.007,0.398,3,0.5"/>
	<path fill="none" stroke="#E01500" stroke-width="2" stroke-linecap="round" stroke-linejoin="round" stroke-miterlimit="10" d="
		M-45.5,19.833c2.56,0,5.062-0.088,7.5,0.491c2.366,0.562,3.904,2.005,6,3.009"/>
	<path fill="none" stroke="#E01500" stroke-width="2" stroke-linecap="round" stroke-linejoin="round" stroke-miterlimit="10" d="
		M-41.333,24.166c2.891-0.307,5.162,1.205,7.5,2.5"/>
</g>
</svg>
