<?xml version="1.0" encoding="utf-8"?>
<!-- Generator: Adobe Illustrator 15.0.2, SVG Export Plug-In . SVG Version: 6.00 Build 0)  -->
<!DOCTYPE svg PUBLIC "-//W3C//DTD SVG 1.1//EN" "http://www.w3.org/Graphics/SVG/1.1/DTD/svg11.dtd">
<svg version="1.1" id="Layer_1" xmlns="http://www.w3.org/2000/svg" xmlns:xlink="http://www.w3.org/1999/xlink" x="0px" y="0px"
	 width="100px" height="100px" viewBox="0 0 100 100" enable-background="new 0 0 100 100" xml:space="preserve">
<g>
	<g>
		<path fill="none" stroke="#E01500" stroke-width="2" stroke-linecap="round" stroke-linejoin="round" stroke-miterlimit="10" d="
			M100,90c0,0-117,4-120,0s5-20,5-40s-10-35-5-40s120,0,120,0"/>
		<path fill="none" stroke="#E01500" stroke-width="2" stroke-linecap="round" stroke-linejoin="round" stroke-miterlimit="10" d="
			M-15,85.75c4.824,1.492,9.832,0.045,15,0.75"/>
		<path fill="none" stroke="#E01500" stroke-width="2" stroke-linecap="round" stroke-linejoin="round" stroke-miterlimit="10" d="
			M-13.5,79c2.608,2.474,8.545,2.487,12,1.75"/>
		<path fill="none" stroke="#E01500" stroke-width="2" stroke-linecap="round" stroke-linejoin="round" stroke-miterlimit="10" d="
			M-11.75,73c2.455,0.912,5.497-0.213,8,0.75"/>
		<path fill="none" stroke="#E01500" stroke-width="2" stroke-linecap="round" stroke-linejoin="round" stroke-miterlimit="10" d="
			M-10.25,66.75c1.043,0.637,2.235,0.828,3.5,0.75"/>
		<path fill="none" stroke="#E01500" stroke-width="2" stroke-linecap="round" stroke-linejoin="round" stroke-miterlimit="10" d="
			M-17.25,13.25c2.525,0.236,5.213-1,8-1c2.405,0,6.842-0.68,8.75,0.75"/>
		<path fill="none" stroke="#E01500" stroke-width="2" stroke-linecap="round" stroke-linejoin="round" stroke-miterlimit="10" d="
			M-16.25,17.25c2.563-0.08,5.085-0.492,7.75-0.5"/>
		<path fill="none" stroke="#E01500" stroke-width="2" stroke-linecap="round" stroke-linejoin="round" stroke-miterlimit="10" d="
			M-14,23c0.771-0.625,1.722-0.808,2.75-0.75"/>
	</g>
	<path fill="none" stroke="#E01500" stroke-width="2" stroke-linecap="round" stroke-linejoin="round" stroke-miterlimit="10" d="
		M-19.667,90.667C-10.75,90,13.25,101.215,18.667,109c0.109-5.384-4.334-10.859-4.334-16.667"/>
	<path fill="none" stroke="#E01500" stroke-width="2" stroke-linecap="round" stroke-linejoin="round" stroke-miterlimit="10" d="
		M-15,50c-10-5-30.788-5.501-35-5c-22.701,2.705-45.623,17.335-60,35c5.833-7.167,37.604-9.447,60,0
		c6.839,2.885,62.721,37.649,68.667,29"/>
	<path fill="none" stroke="#E01500" stroke-width="2" stroke-linecap="round" stroke-linejoin="round" stroke-miterlimit="10" d="
		M3.5,93.5c-0.286-0.463,0.351-0.846-0.389-0.96C2.979,93.819,2.928,95.187,3,96.5"/>
	<path fill="none" stroke="#E01500" stroke-width="2" stroke-linecap="round" stroke-linejoin="round" stroke-miterlimit="10" d="
		M6.5,96.5c0-1.425-0.23-3.379,0.25-4.5"/>
	<path fill="none" stroke="#E01500" stroke-width="2" stroke-linecap="round" stroke-linejoin="round" stroke-miterlimit="10" d="
		M10.5,98.25c0.151-1.619-0.39-3.118-0.25-4.75"/>
	<path fill="none" stroke="#E01500" stroke-width="2" stroke-linecap="round" stroke-linejoin="round" stroke-miterlimit="10" d="
		M-26.75,51.25c3.44,0.479,6.51,1.853,9.75,2.75"/>
	<path fill="none" stroke="#E01500" stroke-width="2" stroke-linecap="round" stroke-linejoin="round" stroke-miterlimit="10" d="
		M-25.75,56c2.757,0.973,5.358,1.011,7.75,3"/>
	<path fill="none" stroke="#E01500" stroke-width="2" stroke-linecap="round" stroke-linejoin="round" stroke-miterlimit="10" d="
		M-24.75,62.25c1.333,0.093,3.564,0.358,4.25,1.5"/>
</g>
</svg>
