<?xml version="1.0" encoding="utf-8"?>
<!-- Generator: Adobe Illustrator 15.0.2, SVG Export Plug-In . SVG Version: 6.00 Build 0)  -->
<!DOCTYPE svg PUBLIC "-//W3C//DTD SVG 1.1//EN" "http://www.w3.org/Graphics/SVG/1.1/DTD/svg11.dtd">
<svg version="1.1" id="Layer_1" xmlns="http://www.w3.org/2000/svg" xmlns:xlink="http://www.w3.org/1999/xlink" x="0px" y="0px"
	 width="100px" height="100px" viewBox="0 0 100 100" enable-background="new 0 0 100 100" xml:space="preserve">
<g>
	<path fill="none" stroke="#E01500" stroke-width="2" stroke-linecap="round" stroke-linejoin="round" stroke-miterlimit="10" d="
		M0,10c18.338,0.992,109.39-9.757,112.617,11.228c2.668,17.334,32.543,75.487,29.76,78.84c-20.801-8.518-37.112-11.879-58.815-10.84
		C77.317,89.527,15,90.067,0,90"/>
	<path fill="none" stroke="#E01500" stroke-width="2" stroke-linecap="round" stroke-linejoin="round" stroke-miterlimit="10" d="
		M0,190c21.5-1,109.39,9.893,112.617-11.094c2.668-17.334,32.543-75.486,29.76-78.84c-20.801,8.518-37.112,11.879-58.815,10.84
		C77.317,110.607,13.25,110.807,0,110"/>
	<path fill="none" stroke="#E01500" stroke-width="2" stroke-linecap="round" stroke-linejoin="round" stroke-miterlimit="10" d="
		M93.849,111.047c0,0,1.858-5.318,1.858-10.818s-3-11.14-3-11.14"/>
	<path fill="none" stroke="#E01500" stroke-width="2" stroke-linecap="round" stroke-linejoin="round" stroke-miterlimit="10" d="
		M90.787,16.478c2.5,0.885,5.348-0.557,7.949,0.001c1.514,0.325,3.318,1.035,4.732,1.556c2.314,0.851,4.576,2.222,5.568,4.443"/>
	<path fill="none" stroke="#E01500" stroke-width="2" stroke-linecap="round" stroke-linejoin="round" stroke-miterlimit="10" d="
		M96.787,23.979c2.519-0.067,5.754,1.23,7.817,2.688c1.375,0.971,2.274,2.429,3.677,3.317c1.075,0.683,2.53,0.741,3.506,1.744"/>
	<path fill="none" stroke="#E01500" stroke-width="2" stroke-linecap="round" stroke-linejoin="round" stroke-miterlimit="10" d="
		M114.037,38.478c-2.388-0.235-3.74-1.91-6-2.818c-1.41-0.567-4.55-1.194-5-2.432"/>
	<path fill="none" stroke="#E01500" stroke-width="2" stroke-linecap="round" stroke-linejoin="round" stroke-miterlimit="10" d="
		M87.287,183.977c1.639,1.891,7.84,0.432,10-0.062c3.508-0.8,7.982-2.634,10.766-4.905c0.543,0.032-0.006,0.202-0.016,0.469"/>
	<path fill="none" stroke="#E01500" stroke-width="2" stroke-linecap="round" stroke-linejoin="round" stroke-miterlimit="10" d="
		M93.037,174.729c2.174,1.562,5.953,0.229,8.25-0.688c2.287-0.913,5.041-4.054,7.5-3.312"/>
	<path fill="none" stroke="#E01500" stroke-width="2" stroke-linecap="round" stroke-linejoin="round" stroke-miterlimit="10" d="
		M100.037,166.229c2.207-0.783,5.52-2.839,7.75-1.75"/>
	<path fill="none" stroke="#E01500" stroke-width="2" stroke-linecap="round" stroke-linejoin="round" stroke-miterlimit="10" d="
		M98.621,104.562c2.326-2.436,0.733-10.431-1-13"/>
	<path fill="none" stroke="#E01500" stroke-width="2" stroke-linecap="round" stroke-linejoin="round" stroke-miterlimit="10" d="
		M104.621,102.562c-1.101-3.326-0.09-7.709-2-10.668"/>
	<path fill="none" stroke="#E01500" stroke-width="2" stroke-linecap="round" stroke-linejoin="round" stroke-miterlimit="10" d="
		M109.287,98.562c-0.396-1.205-0.67-4.406-0.666-4.668"/>
</g>
</svg>
