<?xml version="1.0" encoding="utf-8"?>
<!-- Generator: Adobe Illustrator 15.0.2, SVG Export Plug-In . SVG Version: 6.00 Build 0)  -->
<!DOCTYPE svg PUBLIC "-//W3C//DTD SVG 1.1//EN" "http://www.w3.org/Graphics/SVG/1.1/DTD/svg11.dtd">
<svg version="1.1" id="Layer_1" xmlns="http://www.w3.org/2000/svg" xmlns:xlink="http://www.w3.org/1999/xlink" x="0px" y="0px"
	 width="100px" height="100px" viewBox="0 0 100 100" enable-background="new 0 0 100 100" xml:space="preserve">
<g>
	<path fill="none" stroke="#E01500" stroke-width="2" stroke-linecap="round" stroke-linejoin="round" stroke-miterlimit="10" d="
		M100,90c-15,0.067-77.317-0.473-83.562-0.771c-21.703-1.039-38.014,2.322-58.816,10.84c-2.783-3.354,27.092-61.506,29.76-78.84
		C-9.39,0.243,81.662,10.992,100,10"/>
	<path fill="none" stroke="#E01500" stroke-width="2" stroke-linecap="round" stroke-linejoin="round" stroke-miterlimit="10" d="
		M100,110c-13.25,0.807-77.317,0.607-83.562,0.906c-21.703,1.039-38.014-2.322-58.816-10.84c-2.783,3.354,27.092,61.506,29.76,78.84
		C-9.39,199.893,78.5,189,100,190"/>
	<path fill="none" stroke="#E01500" stroke-width="2" stroke-linecap="round" stroke-linejoin="round" stroke-miterlimit="10" d="
		M7.292,89.089c0,0-3,5.64-3,11.14s1.859,10.818,1.859,10.818"/>
	<path fill="none" stroke="#E01500" stroke-width="2" stroke-linecap="round" stroke-linejoin="round" stroke-miterlimit="10" d="
		M-9.037,22.478c0.992-2.221,3.254-3.592,5.568-4.443c1.414-0.521,3.219-1.231,4.732-1.556c2.602-0.558,5.449,0.884,7.949-0.001"/>
	<path fill="none" stroke="#E01500" stroke-width="2" stroke-linecap="round" stroke-linejoin="round" stroke-miterlimit="10" d="
		M-11.787,31.728c0.975-1.003,2.43-1.061,3.506-1.744c1.402-0.888,2.301-2.346,3.676-3.317c2.064-1.458,5.299-2.755,7.818-2.688"/>
	<path fill="none" stroke="#E01500" stroke-width="2" stroke-linecap="round" stroke-linejoin="round" stroke-miterlimit="10" d="
		M-3.037,33.228c-0.451,1.238-3.59,1.865-5,2.432c-2.26,0.908-3.613,2.583-6,2.818"/>
	<path fill="none" stroke="#E01500" stroke-width="2" stroke-linecap="round" stroke-linejoin="round" stroke-miterlimit="10" d="
		M-8.037,179.479c-0.01-0.267-0.559-0.437-0.016-0.469c2.783,2.271,7.258,4.105,10.766,4.905c2.16,0.493,8.361,1.952,10,0.062"/>
	<path fill="none" stroke="#E01500" stroke-width="2" stroke-linecap="round" stroke-linejoin="round" stroke-miterlimit="10" d="
		M-8.787,170.729c2.459-0.742,5.213,2.398,7.5,3.312c2.297,0.917,6.076,2.25,8.25,0.688"/>
	<path fill="none" stroke="#E01500" stroke-width="2" stroke-linecap="round" stroke-linejoin="round" stroke-miterlimit="10" d="
		M-7.787,164.479c2.23-1.089,5.543,0.967,7.75,1.75"/>
	<path fill="none" stroke="#E01500" stroke-width="2" stroke-linecap="round" stroke-linejoin="round" stroke-miterlimit="10" d="
		M2.379,91.562c-1.734,2.569-3.326,10.564-1,13"/>
	<path fill="none" stroke="#E01500" stroke-width="2" stroke-linecap="round" stroke-linejoin="round" stroke-miterlimit="10" d="
		M-2.621,91.895c-1.91,2.959-0.9,7.342-2,10.668"/>
	<path fill="none" stroke="#E01500" stroke-width="2" stroke-linecap="round" stroke-linejoin="round" stroke-miterlimit="10" d="
		M-8.621,93.895c0.004,0.262-0.271,3.463-0.666,4.668"/>
</g>
</svg>
