<?xml version="1.0" encoding="utf-8"?>
<!-- Generator: Adobe Illustrator 15.0.2, SVG Export Plug-In . SVG Version: 6.00 Build 0)  -->
<!DOCTYPE svg PUBLIC "-//W3C//DTD SVG 1.1//EN" "http://www.w3.org/Graphics/SVG/1.1/DTD/svg11.dtd">
<svg version="1.1" id="Layer_1" xmlns="http://www.w3.org/2000/svg" xmlns:xlink="http://www.w3.org/1999/xlink" x="0px" y="0px"
	 width="100px" height="100px" viewBox="0 0 100 100" enable-background="new 0 0 100 100" xml:space="preserve">
<g>
	<path fill="none" stroke="#E01500" stroke-width="2" stroke-linecap="round" stroke-linejoin="round" stroke-miterlimit="10" d="
		M0,8.359c0,0,126.8-3.889,129.8,0.111s-5,20-5,40c0,20,10,35,5,40S0,88.359,0,88.359"/>
	<path fill="none" stroke="#E01500" stroke-width="2" stroke-linecap="round" stroke-linejoin="round" stroke-miterlimit="10" d="
		M124.8,12.72c-4.824-1.492-9.832-0.045-15-0.75"/>
	<path fill="none" stroke="#E01500" stroke-width="2" stroke-linecap="round" stroke-linejoin="round" stroke-miterlimit="10" d="
		M123.3,19.47c-2.608-2.475-8.545-2.488-12-1.75"/>
	<path fill="none" stroke="#E01500" stroke-width="2" stroke-linecap="round" stroke-linejoin="round" stroke-miterlimit="10" d="
		M121.55,25.47c-2.455-0.912-5.497,0.213-8-0.75"/>
	<path fill="none" stroke="#E01500" stroke-width="2" stroke-linecap="round" stroke-linejoin="round" stroke-miterlimit="10" d="
		M120.05,31.72c-1.043-0.637-2.235-0.828-3.5-0.75"/>
	<path fill="none" stroke="#E01500" stroke-width="2" stroke-linecap="round" stroke-linejoin="round" stroke-miterlimit="10" d="
		M127.05,85.22c-2.525-0.236-5.213,1-8,1c-2.405,0-6.842,0.68-8.75-0.75"/>
	<path fill="none" stroke="#E01500" stroke-width="2" stroke-linecap="round" stroke-linejoin="round" stroke-miterlimit="10" d="
		M126.05,81.22c-2.563,0.08-5.085,0.492-7.75,0.5"/>
	<path fill="none" stroke="#E01500" stroke-width="2" stroke-linecap="round" stroke-linejoin="round" stroke-miterlimit="10" d="
		M123.8,75.47c-0.771,0.625-1.722,0.808-2.75,0.75"/>
</g>
<path fill="none" stroke="#E01500" stroke-width="2" stroke-linecap="round" stroke-linejoin="round" stroke-miterlimit="10" d="
	M129.8,8.47c-6.146-4.234-11.478-9.191-18.003-12.906c-7.22-4.113-15.29-6.279-22.821-9.697c-5.457-2.477-26.752-17-19.122-26.113"
	/>
<path fill="none" stroke="#E01500" stroke-width="2" stroke-linecap="round" stroke-linejoin="round" stroke-miterlimit="10" d="
	M74.795,6.773c-1.939-4.127-1.546-10.238-1.903-14.697c-0.542-6.768-2.191-13.133-3.791-19.699
	c-1.159-4.756-2.717-12.369,3.562-14.1c6.431-1.771,13.585,0.971,19.938,1.955c18.882,2.926,35.782,7.504,54.899,3.627
	c20.25-4.105,52.75-5.5,52.75-5.5"/>
<path fill="none" stroke="#E01500" stroke-width="2" stroke-linecap="round" stroke-linejoin="round" stroke-miterlimit="10" d="
	M200.25,38.359c-11.004-0.518-23.551,0.168-30.25,0.75c-13.944,1.211-31.475,5.104-44.75-0.666"/>
<path fill="none" stroke="#E01500" stroke-width="2" stroke-linecap="round" stroke-linejoin="round" stroke-miterlimit="10" d="
	M73-20.891c-0.894,4.25,9.434,8.98,10.25,10.75"/>
<path fill="none" stroke="#E01500" stroke-width="2" stroke-linecap="round" stroke-linejoin="round" stroke-miterlimit="10" d="
	M73.75-11.891c0.443,2.174,3.115,4.268,5,5.5"/>
<path fill="none" stroke="#E01500" stroke-width="2" stroke-linecap="round" stroke-linejoin="round" stroke-miterlimit="10" d="
	M74.5-4.141c0.005,0.844,1.82,2.049,3,2.5"/>
<path fill="none" stroke="#E01500" stroke-width="2" stroke-linecap="round" stroke-linejoin="round" stroke-miterlimit="10" d="
	M71.5-28.891c-0.145-2.033,0.097-5.76,1.25-7.25"/>
<path fill="none" stroke="#E01500" stroke-width="2" stroke-linecap="round" stroke-linejoin="round" stroke-miterlimit="10" d="
	M74.25-26.641c0.014-1.998,0.065-4.979,0.75-6.25"/>
<path fill="none" stroke="#E01500" stroke-width="2" stroke-linecap="round" stroke-linejoin="round" stroke-miterlimit="10" d="
	M76.75-23.141c0.005-1.516-0.24-3.135,0.5-4.5"/>
</svg>
