<?xml version="1.0" encoding="utf-8"?>
<!-- Generator: Adobe Illustrator 15.0.2, SVG Export Plug-In . SVG Version: 6.00 Build 0)  -->
<!DOCTYPE svg PUBLIC "-//W3C//DTD SVG 1.1//EN" "http://www.w3.org/Graphics/SVG/1.1/DTD/svg11.dtd">
<svg version="1.1" id="Layer_1" xmlns="http://www.w3.org/2000/svg" xmlns:xlink="http://www.w3.org/1999/xlink" x="0px" y="0px"
	 width="100px" height="100px" viewBox="0 0 100 100" enable-background="new 0 0 100 100" xml:space="preserve">
<g>
	<linearGradient id="SVGID_1_" gradientUnits="userSpaceOnUse" x1="150.7725" y1="53.0488" x2="9.439" y2="47.7148">
		<stop  offset="0" style="stop-color:#798E00"/>
		<stop  offset="1" style="stop-color:#AFEF00"/>
	</linearGradient>
	<rect y="10" fill="url(#SVGID_1_)" width="140" height="80"/>
	<linearGradient id="SVGID_2_" gradientUnits="userSpaceOnUse" x1="50.6387" y1="350" x2="154.1333" y2="350">
		<stop  offset="0" style="stop-color:#85AA00"/>
		<stop  offset="1" style="stop-color:#A2CE00"/>
	</linearGradient>
	<polygon fill="url(#SVGID_2_)" points="150,390 0,390 0,310 150,310 125,350 	"/>
	<linearGradient id="SVGID_3_" gradientUnits="userSpaceOnUse" x1="89.0771" y1="172.7998" x2="61.7437" y2="140.1328">
		<stop  offset="0" style="stop-color:#85AA00"/>
		<stop  offset="1" style="stop-color:#798E00"/>
	</linearGradient>
	<rect y="110" fill="url(#SVGID_3_)" width="140" height="80"/>
	<linearGradient id="SVGID_4_" gradientUnits="userSpaceOnUse" x1="89.0781" y1="272.8008" x2="61.7446" y2="240.1338">
		<stop  offset="0" style="stop-color:#85AA00"/>
		<stop  offset="1" style="stop-color:#798E00"/>
	</linearGradient>
	<rect y="210" fill="url(#SVGID_4_)" width="140" height="80"/>
	<linearGradient id="SVGID_5_" gradientUnits="userSpaceOnUse" x1="32.5811" y1="128.2266" x2="122.9939" y2="60.02">
		<stop  offset="0" style="stop-color:#AEEC00"/>
		<stop  offset="0.5337" style="stop-color:#C8FF00"/>
		<stop  offset="1" style="stop-color:#AFEF00"/>
	</linearGradient>
	<polygon fill="url(#SVGID_5_)" points="140,90 0,190 0,110 140,10 	"/>
	<linearGradient id="SVGID_6_" gradientUnits="userSpaceOnUse" x1="32.5815" y1="228.2275" x2="122.9944" y2="160.021">
		<stop  offset="0" style="stop-color:#AEEC00"/>
		<stop  offset="0.5337" style="stop-color:#C8FF00"/>
		<stop  offset="1" style="stop-color:#AFEF00"/>
	</linearGradient>
	<polygon fill="url(#SVGID_6_)" points="140,190 0,290 0,210 140,110 	"/>
	<linearGradient id="SVGID_7_" gradientUnits="userSpaceOnUse" x1="32.582" y1="328.2285" x2="122.9949" y2="260.0219">
		<stop  offset="0" style="stop-color:#AEEC00"/>
		<stop  offset="0.5337" style="stop-color:#C8FF00"/>
		<stop  offset="1" style="stop-color:#AFEF00"/>
	</linearGradient>
	<polygon fill="url(#SVGID_7_)" points="140,290 0,390 0,310 140,210 	"/>
</g>
</svg>
